0
SECTION
2
HEADER
9
$INSUNITS
70
4
9
$ACADVER
1
AC1014
9
$HANDSEED
5
FFFF
0
ENDSEC
0
SECTION
2
TABLES
0
TABLE
2
VPORT
5
8
100
AcDbSymbolTable
0
ENDTAB
0
TABLE
2
LTYPE
5
5
100
AcDbSymbolTable
0
LTYPE
5
14
100
AcDbSymbolTableRecord
100
AcDbLinetypeTableRecord
2
BYBLOCK
70
0
0
LTYPE
5
15
100
AcDbSymbolTableRecord
100
AcDbLinetypeTableRecord
2
BYLAYER
70
0
0
ENDTAB
0
TABLE
2
LAYER
5
2
100
AcDbSymbolTable
70
2
0
LAYER
5
50
100
AcDbSymbolTableRecord
100
AcDbLayerTableRecord
2
0
70
0
6
CONTINUOUS
0
ENDTAB
0
TABLE
2
STYLE
5
3
100
AcDbSymbolTable
70
1
0
STYLE
5
11
100
AcDbSymbolTableRecord
100
AcDbTextStyleTableRecord
2
STANDARD
70
0
0
ENDTAB
0
TABLE
2
VIEW
5
6
100
AcDbSymbolTable
70
0
0
ENDTAB
0
TABLE
2
UCS
5
7
100
AcDbSymbolTable
70
0
0
ENDTAB
0
TABLE
2
APPID
5
9
100
AcDbSymbolTable
70
2
0
APPID
5
12
100
AcDbSymbolTableRecord
100
AcDbRegAppTableRecord
2
ACAD
70
0
0
ENDTAB
0
TABLE
2
DIMSTYLE
5
A
100
AcDbSymbolTable
70
1
0
ENDTAB
0
TABLE
2
BLOCK_RECORD
5
1
100
AcDbSymbolTable
70
1
0
BLOCK_RECORD
5
1F
100
AcDbSymbolTableRecord
100
AcDbBlockTableRecord
2
*MODEL_SPACE
0
BLOCK_RECORD
5
1B
100
AcDbSymbolTableRecord
100
AcDbBlockTableRecord
2
*PAPER_SPACE
0
ENDTAB
0
ENDSEC
0
SECTION
2
BLOCKS
0
BLOCK
5
20
100
AcDbEntity
100
AcDbBlockBegin
2
*MODEL_SPACE
0
ENDBLK
5
21
100
AcDbEntity
100
AcDbBlockEnd
0
BLOCK
5
1C
100
AcDbEntity
100
AcDbBlockBegin
2
*PAPER_SPACE
0
ENDBLK
5
1D
100
AcDbEntity
100
AcDbBlockEnd
0
ENDSEC
0
SECTION
2
ENTITIES
0
LINE
5
100
100
AcDbEntity
8
0
100
AcDbLine
10
25.482547286284529
20
-14.739305768959245
30
0
11
8.9810651213771351
21
-0.48332033862936052
31
0
0
LINE
5
101
100
AcDbEntity
8
0
100
AcDbLine
10
25.482547286284529
20
-14.739305768959245
30
0
11
75.804451775215867
21
-53.492400371282478
31
0
0
ARC
5
102
100
AcDbEntity
8
0
100
AcDbCircle
10
7.673578212410483
20
-1.9967528554205782
30
0
40
2.0000000000000413
100
AcDbArc
50
49.17555944753493
51
87.362124870906797
0
ARC
5
103
100
AcDbEntity
8
0
100
AcDbCircle
10
2.0003913034222309
20
-2.0000000321315792
30
0
40
2.0000000000000249
100
AcDbArc
50
90.011208920562666
51
180.0112089205391
0
LINE
5
104
100
AcDbEntity
8
0
100
AcDbLine
10
0.00039134169430576904
20
-2.0003912972679094
30
0
11
0.0029619607843445195
21
-15.14042756502848
31
0
0
ARC
5
105
100
AcDbEntity
8
0
100
AcDbCircle
10
0.9946331585907231
20
-15.011193142214807
30
0
40
1.000056648694823
100
AcDbArc
50
187.42493180723838
51
235.84636553476741
0
LINE
5
106
100
AcDbEntity
8
0
100
AcDbLine
10
16.330353517753096
20
-26.623682396499806
30
0
11
0.43318746078241377
21
-15.838775179846881
31
0
0
LINE
5
107
100
AcDbEntity
8
0
100
AcDbLine
10
66.65227450562584
20
-65.376748817322181
30
0
11
16.330353517753096
21
-26.623682396499806
31
0
0
ARC
5
108
100
AcDbEntity
8
0
100
AcDbCircle
10
55.059521974363065
20
-80.430256340451194
30
0
40
19.00000000000005
100
AcDbArc
50
19.166181232471537
51
52.40002124916316
0
LINE
5
109
100
AcDbEntity
8
0
100
AcDbLine
10
73.339458964904892
20
-75.150738637652864
30
0
11
73.00635803301374
21
-74.192382064392248
31
0
0
ARC
5
110
100
AcDbEntity
8
0
100
AcDbCircle
10
77.092953145941692
20
-73.768247613116756
30
0
40
3.9999999999999893
100
AcDbArc
50
198.11254672077155
51
264.58017699897039
0
LWPOLYLINE
5
111
100
AcDbEntity
8
0
100
AcDbPolyline
90
4
70
1
43
0.0
10
95.866754092876491
20
-69.72387777914696
10
97.38897885797202
20
-69.568288549085949
42
-0.94748094423922524
10
97.623140693208455
20
-72.674941373336083
10
96.12843552055358
20
-72.913753950137973
42
-1.0796712204825896
0
LINE
5
112
100
AcDbEntity
8
0
100
AcDbLine
10
105.07072005761398
20
-87.882402266824442
30
0
11
107.37728619752517
21
-84.887265236452805
31
0
0
LINE
5
113
100
AcDbEntity
8
0
100
AcDbLine
10
90.795789194117717
20
-61.303329051152701
30
0
11
90.33808995709515
21
-60.06064643655381
31
0
0
LINE
5
114
100
AcDbEntity
8
0
100
AcDbLine
10
86.962380430351544
20
-57.46099970506593
30
0
11
85.950730034271942
21
-57.383757957185814
31
0
0
LINE
5
115
100
AcDbEntity
8
0
100
AcDbLine
10
99.303721357517247
20
-66.954196281755827
30
0
11
97.96913045959829
21
-66.82757442028192
31
0
0
LINE
5
116
100
AcDbEntity
8
0
100
AcDbLine
10
85.221309099483946
20
-63.03540996768902
30
0
11
85.387074267457393
21
-64.684340430690554
31
0
0
LWPOLYLINE
5
117
100
AcDbEntity
8
0
100
AcDbPolyline
90
4
70
1
43
0.0
10
79.833399372213037
20
-71.796300414912949
42
-1.0576176442017167
10
80.243392762378093
20
-74.97493809575046
10
78.737325561461944
20
-75.127144616577851
42
-0.9719377068612236
10
78.335566794683359
20
-72.034393804029975
0
LINE
5
118
100
AcDbEntity
8
0
100
AcDbLine
10
88.324792365738887
20
-62.729695354204949
30
0
11
88.534718764030089
21
-64.084112657748989
31
0
0
LINE
5
119
100
AcDbEntity
8
0
100
AcDbLine
10
103.28914258849829
20
-88.65238618002644
30
0
11
89.024096940981224
21
-87.240425773765111
31
0
0
LWPOLYLINE
5
120
100
AcDbEntity
8
0
100
AcDbPolyline
90
4
70
1
43
0.0
10
87.458611054933101
20
-80.579823575711615
42
-1.102418668835029
10
90.628352351899309
20
-80.180460077142499
10
90.771908700712572
20
-81.571447439483677
42
-0.99999999999999989
10
87.677894674077322
20
-81.973289700805651
0
ARC
5
121
100
AcDbEntity
8
0
100
AcDbCircle
10
86.584588954376954
20
-61.443118939930812
30
0
40
4.0000000000000044
100
AcDbArc
50
20.219533025406548
51
86.687165504908293
0
ARC
5
122
100
AcDbEntity
8
0
100
AcDbCircle
10
98.771978824893893
20
-58.365574981476549
30
0
40
8.5000000000000107
100
AcDbArc
50
200.21953302540669
51
264.58017699897033
0
LINE
5
123
100
AcDbEntity
8
0
100
AcDbLine
10
85.670250568934136
20
-84.65761624195089
30
0
11
85.188802433133276
21
-83.366680027281376
31
0
0
CIRCLE
5
124
100
AcDbEntity
8
0
100
AcDbCircle
10
88.001343519908119
20
-72.3514925275053
30
0
40
4.0000000000000018
0
LINE
5
125
100
AcDbEntity
8
0
100
AcDbLine
10
90.628352351899309
20
-80.180460077142499
30
0
11
90.630827156517597
21
-80.268887156962819
31
0
0
ARC
5
126
100
AcDbEntity
8
0
100
AcDbCircle
10
89.41809336393581
20
-83.259877216254608
30
0
40
4.0000000000000391
100
AcDbArc
50
200.45274619698469
51
264.34725113812675
0
LINE
5
127
100
AcDbEntity
8
0
100
AcDbLine
10
107.66662833738758
20
-82.968105358051389
30
0
11
102.65756765127739
21
-69.537005805821167
31
0
0
ARC
5
128
100
AcDbEntity
8
0
100
AcDbCircle
10
86.978706483082263
20
-64.477623498183561
30
0
40
1.6049999999999995
100
AcDbArc
50
-175.91880930935818
51
14.192358754875386
0
ARC
5
129
100
AcDbEntity
8
0
100
AcDbCircle
10
86.777785352421262
20
-62.930616484865951
30
0
40
1.5600000000000036
100
AcDbArc
50
7.4000000000000652
51
187.62942839582141
0
ARC
5
130
100
AcDbEntity
8
0
100
AcDbCircle
10
98.909724856275744
20
-70.934744831517463
30
0
40
4.0000000000000124
100
AcDbArc
50
20.452746196985032
51
84.813103986652521
0
ARC
5
131
100
AcDbEntity
8
0
100
AcDbCircle
10
103.48614079997559
20
-86.66211190127116
30
0
40
2.0000000000000244
100
AcDbArc
50
264.34725113812681
51
322.3999986349952
0
ARC
5
132
100
AcDbEntity
8
0
100
AcDbCircle
10
105.79270693988676
20
-83.666974870899537
30
0
40
1.9999999999999971
100
AcDbArc
50
-37.600001365004253
51
20.452746196985032
0
ARC
5
133
100
AcDbEntity
8
0
100
AcDbCircle
10
87.397211984298821
20
-38.438898760869613
30
0
40
18.999999999999993
100
AcDbArc
50
232.39999202628741
51
265.63381167752647
0
ARC
5
134
100
AcDbEntity
8
0
100
AcDbCircle
10
77.224636493754815
20
-86.336875456885991
30
0
40
8.5000000000000178
100
AcDbArc
50
20.452746196985032
51
84.580176998970586
0
LINE
5
135
100
AcDbEntity
8
0
100
AcDbLine
10
78.027484859050389
20
-77.874876018080599
30
0
11
76.71514215050847
21
-77.750364996083974
31
0
0
LINE
5
136
100
AcDbEntity
8
0
100
AcDbLine
10
2.0000000382859007
20
-7.0403656238227086e-08
30
0
11
7.7656248991637682
21
0.0011278736165443171
31
0
0
CIRCLE
5
137
100
AcDbEntity
8
0
100
AcDbCircle
10
15.25
20
-15.250000000000002
30
0
40
1.5000000000000002
0
CIRCLE
5
138
100
AcDbEntity
8
0
100
AcDbCircle
10
29.471873744834731
20
-26.911167247660902
30
0
40
1.4999999999999991
0
ENDSEC
0
SECTION
2
OBJECTS
0
DICTIONARY
5
C
100
AcDbDictionary
3
ACAD_GROUP
350
D
3
ACAD_MLINESTYLE
350
17
0
DICTIONARY
5
D
100
AcDbDictionary
0
DICTIONARY
5
1A
330
C
100
AcDbDictionary
0
DICTIONARY
5
17
100
AcDbDictionary
0
ENDSEC
0
EOF
