0
SECTION
2
HEADER
9
$INSUNITS
70
4
9
$ACADVER
1
AC1014
9
$HANDSEED
5
FFFF
0
ENDSEC
0
SECTION
2
TABLES
0
TABLE
2
VPORT
5
8
100
AcDbSymbolTable
0
ENDTAB
0
TABLE
2
LTYPE
5
5
100
AcDbSymbolTable
0
LTYPE
5
14
100
AcDbSymbolTableRecord
100
AcDbLinetypeTableRecord
2
BYBLOCK
70
0
0
LTYPE
5
15
100
AcDbSymbolTableRecord
100
AcDbLinetypeTableRecord
2
BYLAYER
70
0
0
ENDTAB
0
TABLE
2
LAYER
5
2
100
AcDbSymbolTable
70
2
0
LAYER
5
50
100
AcDbSymbolTableRecord
100
AcDbLayerTableRecord
2
0
70
0
6
CONTINUOUS
0
ENDTAB
0
TABLE
2
STYLE
5
3
100
AcDbSymbolTable
70
1
0
STYLE
5
11
100
AcDbSymbolTableRecord
100
AcDbTextStyleTableRecord
2
STANDARD
70
0
0
ENDTAB
0
TABLE
2
VIEW
5
6
100
AcDbSymbolTable
70
0
0
ENDTAB
0
TABLE
2
UCS
5
7
100
AcDbSymbolTable
70
0
0
ENDTAB
0
TABLE
2
APPID
5
9
100
AcDbSymbolTable
70
2
0
APPID
5
12
100
AcDbSymbolTableRecord
100
AcDbRegAppTableRecord
2
ACAD
70
0
0
ENDTAB
0
TABLE
2
DIMSTYLE
5
A
100
AcDbSymbolTable
70
1
0
ENDTAB
0
TABLE
2
BLOCK_RECORD
5
1
100
AcDbSymbolTable
70
1
0
BLOCK_RECORD
5
1F
100
AcDbSymbolTableRecord
100
AcDbBlockTableRecord
2
*MODEL_SPACE
0
BLOCK_RECORD
5
1B
100
AcDbSymbolTableRecord
100
AcDbBlockTableRecord
2
*PAPER_SPACE
0
ENDTAB
0
ENDSEC
0
SECTION
2
BLOCKS
0
BLOCK
5
20
100
AcDbEntity
100
AcDbBlockBegin
2
*MODEL_SPACE
0
ENDBLK
5
21
100
AcDbEntity
100
AcDbBlockEnd
0
BLOCK
5
1C
100
AcDbEntity
100
AcDbBlockBegin
2
*PAPER_SPACE
0
ENDBLK
5
1D
100
AcDbEntity
100
AcDbBlockEnd
0
ENDSEC
0
SECTION
2
ENTITIES
0
LWPOLYLINE
5
100
100
AcDbEntity
8
0
100
AcDbPolyline
90
12
70
1
43
0.0
10
-7.8122770662173515
20
-62.527877842935588
42
-0.29639153736374235
10
-9.0000001341104543
20
-60.700254745695077
10
-9.000000134110465
20
-59.978168490499925
42
-0.23144282478505457
10
-8.2278813611402963
20
-58.399464055747259
10
-1.8418218405447595
20
-53.432528873061855
42
-0.34310775014162265
10
1.8418218405447595
20
-53.432528873061855
10
8.227881361140291
20
-58.399464055747274
42
-0.23144282478505457
10
9.0000001341104543
20
-59.978168490499925
10
9.0000001341104543
20
-60.700254745695077
42
-0.29639153736374235
10
7.8122770662173515
20
-62.527877842935588
10
0.812276932106897
20
-65.638989013651354
42
-0.21221445044902565
10
-0.812276932106899
20
-65.63898901365134
0
LWPOLYLINE
5
101
100
AcDbEntity
8
0
100
AcDbPolyline
90
63
70
1
43
0.0
10
7.2529189897745017
20
-81.709307357125667
10
12.650839298949624
20
-80.514375095353529
42
0.33825748519122273
10
14.998940040562434
20
-77.729942610283985
10
16.624240327953757
20
-44.062504483824092
10
16.62424032795376
20
-43.103911818664209
10
16.831190498346484
20
-38.817022736683931
42
-0.14355402680023277
10
17.843855960871924
20
-35.892994531866435
10
17.928414988132573
20
-35.774187374302535
42
-0.2761955516183201
10
20.278554566563919
20
-34.743553963374488
10
26.814588712197516
20
-35.56929262663872
42
0.26570089155994558
10
28.648112415996696
20
-34.80760575594902
10
35.286085737088037
20
-26.213312885171497
42
0.3509680826957951
10
35.178935095610683
20
-21.214820609404001
10
24.853584986761255
20
-8.8688745547706684
42
-0.17590828342651169
10
24.038391513000775
20
-6.6234761676995397
10
24.038391513000775
20
0.024788618629211223
10
24.038391513000764
20
6.6730534049579573
42
-0.17590828342651169
10
24.853584986761248
20
8.9184517920290887
10
35.17893509560767
20
21.264397846662433
42
0.35096808269592922
10
35.28608573708803
20
26.262890122429923
10
28.868377940633149
20
34.641481223754461
42
0.26269509030162952
10
27.114836250079456
20
35.442952409021082
10
20.859277919969607
20
34.714005176242573
42
-0.44876358784361547
10
17.508923734477445
20
37.701255478779721
10
17.505599828427851
20
45.686423743922674
42
-0.00020378333151707494
10
17.505596741828271
20
45.693759942903313
10
17.505171733508917
20
77.967520532135183
42
0.306663937425942
10
15.619454790374586
20
80.752866684656141
10
5.3613328844951749
20
84.856589770573436
42
0.095415520801200485
10
4.6185497155158295
20
84.999665996555663
10
-4.6105899499300946
20
84.999999178146027
42
0.095414433293919174
10
-5.3533754423412061
20
84.856979784728082
10
-15.607437716703993
20
80.755790838923289
42
0.30668749648858457
10
-17.493367781204455
20
77.970330570482218
10
-17.506582151970072
20
45.693513055331294
10
-17.509851222690965
20
37.708630462440851
42
-0.44860224151890921
10
-20.8581939624241
20
34.730151121882173
10
-27.143143069582628
20
35.464893684705757
42
0.26359657213744808
10
-28.959958792292429
20
34.698702207488168
10
-35.343619433897032
20
26.409240655740863
42
0.35136664848008109
10
-35.236302555294749
20
21.39612063209935
10
-24.847161169684089
20
8.938467191222788
42
-0.17556952524703723
10
-24.035120913682562
20
6.6963624536508712
10
-24.035222876355537
20
0.024788618588769129
10
-24.03512091368906
20
-6.6467852163924501
42
-0.17556952524689828
10
-24.847161169688835
20
-8.8888899539601329
10
-35.236302555294749
20
-21.346543394840928
42
0.35136664848008281
10
-35.343619433897032
20
-26.359663418482448
10
-29.093690806300589
20
-34.651653569600668
10
-28.745508050670352
20
-35.149610450706788
42
0.26570089155994525
10
-26.90303719641139
20
-35.889392318949561
10
-20.377307900748164
20
-34.98581949254288
42
-0.27619555161831866
10
-18.015052704847825
20
-35.988372062372754
10
-17.929083805241167
20
-36.106163055577241
42
-0.14355402680023355
10
-16.881643322938302
20
-39.017915228684245
10
-16.623619100233903
20
-43.302033559767651
10
-16.593703742140566
20
-44.025004329079813
10
-14.500968262373418
20
-77.842174848341287
42
0.33631908097774715
10
-12.135743241677819
20
-80.590186562135557
10
-6.6727372732293908
20
-81.761726270997343
42
0.054702579548704916
10
-4.0684413155201229
20
-82.028168061647477
10
0.00058408396389098005
20
-81.992064897272755
10
4.6570011295603999
20
-81.992949371502647
42
0.054565478506529208
0
ARC
5
102
100
AcDbEntity
8
0
100
AcDbCircle
10
-2.0003491755316345
20
2.0000241139728425
30
0
40
2.0000361174521704
100
AcDbArc
50
-2.0080107297131811
51
0.010519269024950307
0
LINE
5
103
100
AcDbEntity
8
0
100
AcDbLine
10
-5.5920161409980711
20
-74.094141533988591
30
0
11
-7.6386587139281197
21
-70.962519110505539
31
0
0
LINE
5
104
100
AcDbEntity
8
0
100
AcDbLine
10
-6.1391273905060579
20
-67.325219014378547
30
0
11
-7.6627994857551656
21
-69.90722926817044
31
0
0
LWPOLYLINE
5
105
100
AcDbEntity
8
0
100
AcDbPolyline
90
12
70
1
43
0.0
10
-0.99956875821454627
20
8.0854567976455058
42
-0.26790576533571281
10
1.0001503780622178
20
8.084716710660464
10
6.5001114129736397
20
4.907192625381307
42
-0.26789567078518928
10
7.4996107827616552
20
3.175252328015139
10
7.4994458488543145
20
1.2997897810598054
42
-0.4928286465662618
10
6.2415266122282675
20
0.33371124499385896
10
0.51551062591968666
20
1.8622777251497682
42
0.13105541762454087
10
-0.51522918937772277
20
1.8625276541078837
10
-6.2448334601356228
20
0.33597947673413997
42
-0.49262835023529772
10
-7.5022840966226632
20
1.3020232567244654
10
-7.5027489448752647
20
3.1789571857482128
42
-0.26813644302417433
10
-6.5019675202552429
20
4.9119542766658721
0
LINE
5
106
100
AcDbEntity
8
0
100
AcDbLine
10
6.1391273905060935
20
-67.325219014378575
30
0
11
7.6627994857551895
21
-69.907229268170468
31
0
0
LINE
5
107
100
AcDbEntity
8
0
100
AcDbLine
10
3.1419008343921124
20
-67.658249449360198
30
0
11
4.885162288108976
21
-66.913788076736097
31
0
0
LWPOLYLINE
5
108
100
AcDbEntity
8
0
100
AcDbPolyline
90
11
70
1
43
0.0
10
7.4969352982579718
20
-3.0606721592445081
42
-0.28009704848071543
10
6.5005074239023237
20
-4.8839234660500512
10
0.98837599222109818
20
-8.0725245807938624
42
-0.2682237863285209
10
-1.0133985192551409
20
-8.0731787919755309
10
-6.5014974930517022
20
-4.9032654826999185
42
-0.26783311699105439
10
-7.5011760696849015
20
-3.1718955805656646
10
-7.5011735357904632
20
-3.1821267743302659
42
-0.45515030065849538
10
-6.3641355167140734
20
-2.1913133264696096
10
-0.74795312539424974
20
-2.9682740232328126
42
0.06676108632807165
10
-0.21623889872465885
20
-2.9704786832735981
10
6.3691757227670269
20
-2.1150241892899349
42
-0.43878022759735702
0
LINE
5
109
100
AcDbEntity
8
0
100
AcDbLine
10
5.5920161409980711
20
-74.094141533988591
30
0
11
7.6386587139281374
21
-70.962519110505568
31
0
0
LINE
5
110
100
AcDbEntity
8
0
100
AcDbLine
10
0
20
-75.00000111758709
30
0
11
3.9178426884559583
21
-75.00000111758709
31
0
0
LINE
5
111
100
AcDbEntity
8
0
100
AcDbLine
10
0
20
-75.00000111758709
30
0
11
-3.9178426884559583
21
-75.00000111758709
31
0
0
ARC
5
112
100
AcDbEntity
8
0
100
AcDbCircle
10
2.0257583690406715
20
1.985073064068859
30
0
40
1.9791015834891559
100
AcDbArc
50
179.88652964371775
51
181.61271649056812
0
LINE
5
113
100
AcDbEntity
8
0
100
AcDbLine
10
-4.8851622881089378
20
-66.913788076736068
30
0
11
-3.1419008343920831
21
-67.658249449360213
31
0
0
CIRCLE
5
114
100
AcDbEntity
8
0
100
AcDbCircle
10
15.25
20
-15.250000000000002
30
0
40
1.5000000000000002
0
ARC
5
115
100
AcDbEntity
8
0
100
AcDbCircle
10
18.550000979999961
20
-15.249999959999966
30
0
40
0.049999900002503227
100
AcDbArc
50
-90.434062085433524
51
90.434062085394359
0
ARC
5
116
100
AcDbEntity
8
0
100
AcDbCircle
10
11.949998939999968
20
-15.249999959999966
30
0
40
0.049999899999980467
100
AcDbArc
50
89.565937914605655
51
270.43406208539437
0
LINE
5
117
100
AcDbEntity
8
0
100
AcDbLine
10
0
20
-25.00000037252903
30
0
11
5.0635456208228469
21
-25.00000037252903
31
0
0
LINE
5
118
100
AcDbEntity
8
0
100
AcDbLine
10
6.7059993817013446
20
-25.615233638056019
30
0
11
6.7130223872588415
21
-25.621353738586023
31
0
0
ARC
5
119
100
AcDbEntity
8
0
100
AcDbCircle
10
-5.2778998924079499
20
-67.83343864851291
30
0
40
1.0000000000000062
100
AcDbArc
50
66.875051260936047
51
149.45468693146736
0
LINE
5
120
100
AcDbEntity
8
0
100
AcDbLine
10
7.4168406425225841
20
-29.241618678697755
30
0
11
6.0351249594912915
21
-31.9620011832472
31
0
0
CIRCLE
5
121
100
AcDbEntity
8
0
100
AcDbCircle
10
-10
20
-67.000000849366188
30
0
40
1.5600000000000012
0
LINE
5
122
100
AcDbEntity
8
0
100
AcDbLine
10
0.72653803072548206
20
-37.435923369778259
30
0
11
1.0842021724855044e-18
21
-37.193123568197215
31
0
0
LINE
5
123
100
AcDbEntity
8
0
100
AcDbLine
10
-0.72653803072548206
20
-37.435923369778259
30
0
11
2.7999262662215301e-19
21
-37.193123568197215
31
0
0
CIRCLE
5
124
100
AcDbEntity
8
0
100
AcDbCircle
10
-11.57215436070878
20
-76.850806767155277
30
0
40
1.5600000000000016
0
ARC
5
125
100
AcDbEntity
8
0
100
AcDbCircle
10
-3.9178426884559636
20
-73.00000111758709
30
0
40
1.9999999999999973
100
AcDbArc
50
213.16624825749932
51
270.00000000000017
0
ARC
5
126
100
AcDbEntity
8
0
100
AcDbCircle
10
-6.8015719876570735
20
-70.415448902304803
30
0
40
0.9999999999999859
100
AcDbArc
50
149.45468693146691
51
213.16624825749889
0
ARC
5
127
100
AcDbEntity
8
0
100
AcDbCircle
10
-2.7454611616927367
20
-67.000001013279146
30
0
40
0.99999999999981881
100
AcDbArc
50
241.43851574843595
51
270.00000000000284
0
ARC
5
128
100
AcDbEntity
8
0
100
AcDbCircle
10
-6.3044209608428226
20
-69.348234007854643
30
0
40
1.9999999999999993
100
AcDbArc
50
183.11301614168704
51
183.55468474953477
0
CIRCLE
5
129
100
AcDbEntity
8
0
100
AcDbCircle
10
13.970970945131036
20
-32.556301569831689
30
0
40
1.5600000000000001
0
ARC
5
130
100
AcDbEntity
8
0
100
AcDbCircle
10
3.9178426884559636
20
-73.00000111758709
30
0
40
1.9999999999999929
100
AcDbArc
50
269.99999999999983
51
326.83375174250062
0
ARC
5
131
100
AcDbEntity
8
0
100
AcDbCircle
10
5.2778998924079836
20
-67.833438648512939
30
0
40
1.0000000000000022
100
AcDbArc
50
30.545313068532586
51
113.12494873906373
0
CIRCLE
5
132
100
AcDbEntity
8
0
100
AcDbCircle
10
10
20
-67.000000849366188
30
0
40
1.5600000000000014
0
ARC
5
133
100
AcDbEntity
8
0
100
AcDbCircle
10
3.8857805861880479e-15
20
-60.301044875145493
30
0
40
7.9999999999999805
100
AcDbArc
50
246.87505126093609
51
293.12494873906417
0
ARC
5
134
100
AcDbEntity
8
0
100
AcDbCircle
10
6.8015719876570957
20
-70.415448902304846
30
0
40
0.99999999999998113
100
AcDbArc
50
-33.166248257498367
51
30.545313068533762
0
CIRCLE
5
135
100
AcDbEntity
8
0
100
AcDbCircle
10
11.57215436070878
20
-76.850806767155277
30
0
40
1.5600000000000016
0
LINE
5
136
100
AcDbEntity
8
0
100
AcDbLine
10
11.477218027723367
20
-52.937568067354363
30
0
11
11.477218027723367
21
-53.000000789761543
31
0
0
LINE
5
137
100
AcDbEntity
8
0
100
AcDbLine
10
7.4990520679269395
20
-3.1778908129787458
30
0
11
7.4991566431451542
21
-1.9887666251001235
31
0
0
CIRCLE
5
138
100
AcDbEntity
8
0
100
AcDbCircle
10
-15.25
20
15.250000000000002
30
0
40
1.5000000000000009
0
LWPOLYLINE
5
139
100
AcDbEntity
8
0
100
AcDbPolyline
90
26
70
1
43
0.0
10
1.4263048675744294
20
-37.669776577669197
10
8.2845243449536543
20
-39.961706604572512
42
-0.29476600478526438
10
8.9624022330320976
20
-40.808636697722484
10
9.1852876646855268
20
-42.992995489933257
42
-0.23332945980821382
10
8.8761556240652357
20
-43.822387355516611
10
7.0776625679758753
20
-45.516660984569256
42
0.39303479783390954
10
6.897351103983608
20
-48.234239452592256
10
8.2271621697723738
20
-49.869574522817864
42
-0.013247717672315189
10
8.6958861973043362
20
-50.478244728129262
42
-0.45511290873380927
10
8.3602151107946128
20
-51.948498518139317
10
7.4890033133085678
20
-52.415590026036682
42
-0.29655773682091613
10
6.4025497746081372
20
-52.323618502933584
10
2.4557624540596867
20
-49.253895031395906
42
0.34310775014162354
10
-2.455762454059689
20
-49.253895031395913
10
-6.4025497746081399
20
-52.323618502933577
42
-0.29655773682091613
10
-7.4890033133085669
20
-52.415590026036682
10
-8.360215110794627
20
-51.948498518139338
42
-0.45511290873380927
10
-8.695886197304306
20
-50.478244728129255
42
-0.013247717672315189
10
-8.2271621697723205
20
-49.869574522817871
10
-6.897351103983608
20
-48.234239452592256
42
0.39303479783390954
10
-7.0776625679758753
20
-45.516660984569256
10
-8.876155624065234
20
-43.822387355516611
42
-0.23332945980821382
10
-9.1852876646855268
20
-42.992995489933257
10
-8.9624022330320976
20
-40.808636697722484
42
-0.29476600478526438
10
-8.2845243449536543
20
-39.96170660457252
10
-1.4263048675744294
20
-37.669776577669197
42
-0.16267200036571583
0
LWPOLYLINE
5
140
100
AcDbEntity
8
0
100
AcDbPolyline
90
4
70
1
43
0.0
10
14.25
20
45.000000596046448
42
-0.99999999999999989
10
15.250000000000002
20
45.000000596046448
10
15.250000000000002
20
40.000000596046448
42
-0.99999999999999989
10
14.25
20
40.000000596046448
0
CIRCLE
5
141
100
AcDbEntity
8
0
100
AcDbCircle
10
-13.970970945131036
20
-32.556301569831689
30
0
40
1.5600000000000014
0
ARC
5
142
100
AcDbEntity
8
0
100
AcDbCircle
10
4.7420778742046217
20
-27.883073819953633
30
0
40
3.0000000000000075
100
AcDbArc
50
-26.926574419931633
51
48.929930573854435
0
ARC
5
143
100
AcDbEntity
8
0
100
AcDbCircle
10
-3.8061559858929921
20
-30.829880467627095
30
0
40
2.5000000000000062
100
AcDbArc
50
206.92657441993168
51
291.80140948635182
0
LINE
5
144
100
AcDbEntity
8
0
100
AcDbLine
10
-26.98850560470056
20
-22.007310924830286
30
0
11
-27.000163901394529
21
-22.00732801146204
31
0
0
ARC
5
145
100
AcDbEntity
8
0
100
AcDbCircle
10
-5.0635456208228247
20
-27.500000372529072
30
0
40
2.5000000000000444
100
AcDbArc
50
90.000000000000512
51
131.07006942614495
0
LINE
5
146
100
AcDbEntity
8
0
100
AcDbLine
10
-10
20
-40
30
0
11
-9.9035069511426705
21
-40
31
0
0
LINE
5
147
100
AcDbEntity
8
0
100
AcDbLine
10
1.0842021724855044e-18
20
-37.193123568197215
30
0
11
0
21
-37.000000551342964
31
0
0
ARC
5
148
100
AcDbEntity
8
0
100
AcDbCircle
10
3.8061559858929921
20
-30.829880467627095
30
0
40
2.5000000000000067
100
AcDbArc
50
248.19859051364818
51
333.07342558006826
0
ARC
5
149
100
AcDbEntity
8
0
100
AcDbCircle
10
-4.7420778742046217
20
-27.883073819953633
30
0
40
3.0000000000000071
100
AcDbArc
50
131.07006942614558
51
206.92657441993163
0
ARC
5
150
100
AcDbEntity
8
0
100
AcDbCircle
10
5.0635456208228247
20
-27.500000372529072
30
0
40
2.500000000000044
100
AcDbArc
50
48.92993057385506
51
89.999999999999503
0
LINE
5
151
100
AcDbEntity
8
0
100
AcDbLine
10
2.8776792950077299
20
-33.151072194840253
30
0
11
2.4140393963016371
21
-32.965616235357814
31
0
0
CIRCLE
5
152
100
AcDbEntity
8
0
100
AcDbCircle
10
-13.908048975900325
20
32.557271714880493
30
0
40
1.5600000000000009
0
ARC
5
153
100
AcDbEntity
8
0
100
AcDbCircle
10
-6.9388939039072284e-16
20
-39.000714726111781
30
0
40
6.4999999999997859
100
AcDbArc
50
68.198590513647773
51
111.80140948635298
0
CIRCLE
5
154
100
AcDbEntity
8
0
100
AcDbCircle
10
-10
20
-47.000000849366188
30
0
40
1.5600000000000032
0
LINE
5
155
100
AcDbEntity
8
0
100
AcDbLine
10
-29.093690806300589
20
-34.651653569600668
30
0
11
-32.158829874571779
21
-30.585030655910408
31
0
0
CIRCLE
5
156
100
AcDbEntity
8
0
100
AcDbCircle
10
-15.250000000000004
20
-15.249999959999966
30
0
40
1.5000000000000002
0
LINE
5
157
100
AcDbEntity
8
0
100
AcDbLine
10
17.505597520773485
20
45.690132122984082
30
0
11
17.505596903907186
21
45.692166309707176
31
0
0
LWPOLYLINE
5
158
100
AcDbEntity
8
0
100
AcDbPolyline
90
4
70
1
43
0.0
10
-15.250000000000002
20
40.000000596046448
10
-15.250000000000002
20
45.000000596046448
42
-0.99999999999999989
10
-14.25
20
45.000000596046448
10
-14.25
20
40.000000596046448
42
-0.99999999999999989
0
LINE
5
159
100
AcDbEntity
8
0
100
AcDbLine
10
2.4256297122493331
20
45.000000670552254
30
0
11
0
21
45.000000670552254
31
0
0
ARC
5
160
100
AcDbEntity
8
0
100
AcDbCircle
10
-7.673578212410483
20
-1.9967528554205827
30
0
40
2.0000000000000404
100
AcDbArc
50
92.637875129093231
51
93.267122020066296
0
ARC
5
161
100
AcDbEntity
8
0
100
AcDbCircle
10
-11.949998979999998
20
-15.249999959999966
30
0
40
0.049999899999980529
100
AcDbArc
50
-90.43406208540452
51
90.434062085404534
0
ARC
5
162
100
AcDbEntity
8
0
100
AcDbCircle
10
-2.4256297122493478
20
46.000000670552232
30
0
40
0.99999999999997891
100
AcDbArc
50
210.25643716352889
51
270.0000000000008
0
LINE
5
163
100
AcDbEntity
8
0
100
AcDbLine
10
-6.7059993817013446
20
-25.615233638056019
30
0
11
-6.7130223872588415
21
-25.621353738586023
31
0
0
CIRCLE
5
164
100
AcDbEntity
8
0
100
AcDbCircle
10
13.970970945131036
20
32.556301569831689
30
0
40
1.5600000000000012
0
ARC
5
165
100
AcDbEntity
8
0
100
AcDbCircle
10
2.4256297122493478
20
46.000000670552232
30
0
40
0.99999999999997868
100
AcDbArc
50
269.9999999999992
51
329.74356283647109
0
CIRCLE
5
166
100
AcDbEntity
8
0
100
AcDbCircle
10
15.25
20
15.250000000000002
30
0
40
1.4999999999999993
0
LINE
5
167
100
AcDbEntity
8
0
100
AcDbLine
10
-7.4168406425225841
20
-29.241618678697755
30
0
11
-6.0351249594912915
21
-31.9620011832472
31
0
0
LINE
5
168
100
AcDbEntity
8
0
100
AcDbLine
10
0
20
-25.00000037252903
30
0
11
-5.0635456208228469
21
-25.00000037252903
31
0
0
ARC
5
169
100
AcDbEntity
8
0
100
AcDbCircle
10
-18.550001019999989
20
-15.249999959999966
30
0
40
0.049999900002503296
100
AcDbArc
50
89.565937914558347
51
270.43406208544167
0
ARC
5
170
100
AcDbEntity
8
0
100
AcDbCircle
10
-24.883973619999988
20
-13.632202839999962
30
0
40
0.0499999000000051
100
AcDbArc
50
-130.55152380479839
51
49.244175397201005
0
ARC
5
171
100
AcDbEntity
8
0
100
AcDbCircle
10
-26.506428573975445
20
45.693481262464005
30
0
40
8.9998464220615215
100
AcDbArc
50
-0.046430325846786656
51
0.00020240198468191443
0
LINE
5
172
100
AcDbEntity
8
0
100
AcDbLine
10
1.292893233714612
20
58.292894083080796
30
0
11
3.0000000447034836
21
60.000000894069672
31
0
0
LINE
5
173
100
AcDbEntity
8
0
100
AcDbLine
10
-2.8776792950077299
20
-33.151072194840253
30
0
11
-2.4140393963017175
21
-32.965616235357842
31
0
0
ARC
5
174
100
AcDbEntity
8
0
100
AcDbCircle
10
-7.6735756363530445
20
1.9967494087175897
30
0
40
2.0000036686048066
100
AcDbArc
50
266.73281006069863
51
267.36207291326241
0
CIRCLE
5
175
100
AcDbEntity
8
0
100
AcDbCircle
10
10
20
-47.000000849366188
30
0
40
1.5600000000000005
0
ARC
5
176
100
AcDbEntity
8
0
100
AcDbCircle
10
-8.2589631498908016
20
64.000000938773155
30
0
40
0.99999999999999667
100
AcDbArc
50
149.74356283647032
51
270.0000000000004
0
LINE
5
177
100
AcDbEntity
8
0
100
AcDbLine
10
-14.25
20
40.000000596046448
30
0
11
-14.25
21
45.000000596046448
31
0
0
LINE
5
178
100
AcDbEntity
8
0
100
AcDbLine
10
14.25
20
40.000000596046448
30
0
11
14.25
21
45.000000596046448
31
0
0
LINE
5
179
100
AcDbEntity
8
0
100
AcDbLine
10
0
20
67.0000009983778
30
0
11
-0.50000001490116075
21
67.0000009983778
31
0
0
LINE
5
180
100
AcDbEntity
8
0
100
AcDbLine
10
-1.292893233714612
20
58.292894083080796
30
0
11
-3.0000000447034836
21
60.000000894069672
31
0
0
ARC
5
181
100
AcDbEntity
8
0
100
AcDbCircle
10
-0.50000001490116297
20
66.0000009983778
30
0
40
0.99999999999999645
100
AcDbArc
50
89.999999999999872
51
143.13010235415612
0
ARC
5
182
100
AcDbEntity
8
0
100
AcDbCircle
10
-4.5000000596046439
20
64.000000938773155
30
0
40
0.99999999999999645
100
AcDbArc
50
269.99999999999994
51
323.13010235415584
0
LWPOLYLINE
5
183
100
AcDbEntity
8
0
100
AcDbPolyline
90
4
70
1
43
0.0
10
-15.250000000000004
20
66.000000983476639
10
-15.250000000000004
20
71.000001057982445
42
-0.99999999999999989
10
-14.250000000000004
20
71.000001057982445
10
-14.250000000000004
20
66.000000983476639
42
-0.99999999999999989
0
ARC
5
184
100
AcDbEntity
8
0
100
AcDbCircle
10
-2.4256297122493478
20
74.000001117587118
30
0
40
0.99999999999997868
100
AcDbArc
50
89.999999999999147
51
149.74356283647143
0
CIRCLE
5
185
100
AcDbEntity
8
0
100
AcDbCircle
10
13.977152347075211
20
77.555355279540677
30
0
40
1.5599999999999996
0
LINE
5
186
100
AcDbEntity
8
0
100
AcDbLine
10
1.3000000149011592
20
66.600000998377794
30
0
11
3.7000000596046463
21
63.400000938773154
31
0
0
ARC
5
187
100
AcDbEntity
8
0
100
AcDbCircle
10
0.58578645252806483
20
59.000000864267356
30
0
40
1.0000000000000053
100
AcDbArc
50
270.00000000000011
51
314.99999999999949
0
ARC
5
188
100
AcDbEntity
8
0
100
AcDbCircle
10
-0.58578645252806483
20
59.000000864267356
30
0
40
1.0000000000000051
100
AcDbArc
50
225.00000000000051
51
269.99999999999989
0
ARC
5
189
100
AcDbEntity
8
0
100
AcDbCircle
10
4.5000000596046439
20
56.000000849366188
30
0
40
0.99999999999999645
100
AcDbArc
50
89.999999999999943
51
143.13010235415584
0
ARC
5
190
100
AcDbEntity
8
0
100
AcDbCircle
10
-0.58578645252806483
20
61.000000923871987
30
0
40
1.0000000000000053
100
AcDbArc
50
90.000000000000099
51
134.99999999999949
0
LINE
5
191
100
AcDbEntity
8
0
100
AcDbLine
10
0.58578645252806627
20
62.000000923871994
30
0
11
0
21
62.000000923871994
31
0
0
LINE
5
192
100
AcDbEntity
8
0
100
AcDbLine
10
-3.2894086131477653
20
74.503872143111181
30
0
11
-9.1227420507892294
21
64.503871964297247
31
0
0
LINE
5
193
100
AcDbEntity
8
0
100
AcDbLine
10
8.2589631498907945
20
57.000000849366188
30
0
11
4.5000000596046448
21
57.000000849366188
31
0
0
LINE
5
194
100
AcDbEntity
8
0
100
AcDbLine
10
-17.506582151970072
20
45.693513055331294
30
0
11
-17.4999749626277
21
61.831931484361668
31
0
0
ARC
5
195
100
AcDbEntity
8
0
100
AcDbCircle
10
-8.2589631498908016
20
56.000000849366188
30
0
40
0.99999999999999645
100
AcDbArc
50
89.999999999999588
51
210.25643716352934
0
LWPOLYLINE
5
196
100
AcDbEntity
8
0
100
AcDbPolyline
90
4
70
1
43
0.0
10
15.250000000000004
20
66.000001057982445
10
15.250000000000004
20
71.000001057982445
42
0.99999999999999989
10
14.250000000000004
20
71.000001057982445
10
14.250000000000004
20
66.000001057982445
42
0.99999999999999989
0
LINE
5
197
100
AcDbEntity
8
0
100
AcDbLine
10
8.2589631498907945
20
63.000000938773155
30
0
11
4.5000000596046448
21
63.000000938773155
31
0
0
LINE
5
198
100
AcDbEntity
8
0
100
AcDbLine
10
2.4256297122493331
20
75.00000111758709
30
0
11
0
21
75.00000111758709
31
0
0
LINE
5
199
100
AcDbEntity
8
0
100
AcDbLine
10
0.58578645252806627
20
58.000000864267349
30
0
11
0
21
58.000000864267349
31
0
0
ARC
5
200
100
AcDbEntity
8
0
100
AcDbCircle
10
0.50000001490116297
20
66.0000009983778
30
0
40
0.99999999999999478
100
AcDbArc
50
36.869897645843892
51
90.000000000000128
0
ARC
5
201
100
AcDbEntity
8
0
100
AcDbCircle
10
-0.50000001490116297
20
54.000000789761543
30
0
40
0.99999999999999478
100
AcDbArc
50
216.86989764584422
51
270.00000000000011
0
LINE
5
202
100
AcDbEntity
8
0
100
AcDbLine
10
3.2894086131477653
20
45.496129645028162
30
0
11
9.1227420507892294
21
55.496129823842104
31
0
0
ARC
5
203
100
AcDbEntity
8
0
100
AcDbCircle
10
2.4256297122493478
20
74.000001117587118
30
0
40
0.99999999999997891
100
AcDbArc
50
30.256437163528584
51
90.000000000000838
0
LINE
5
204
100
AcDbEntity
8
0
100
AcDbLine
10
1.3000000149011592
20
53.400000789761542
30
0
11
3.7000000596046463
21
56.600000849366189
31
0
0
LINE
5
205
100
AcDbEntity
8
0
100
AcDbLine
10
-0.58578645252806627
20
62.000000923871994
30
0
11
0
21
62.000000923871994
31
0
0
ARC
5
206
100
AcDbEntity
8
0
100
AcDbCircle
10
-0.50000001490116297
20
66.0000009983778
30
0
40
0.99999999999999645
100
AcDbArc
50
89.999999999999872
51
143.13010235415612
0
LINE
5
207
100
AcDbEntity
8
0
100
AcDbLine
10
14.250000000000004
20
66.000001057982445
30
0
11
14.250000000000004
21
71.000001057982445
31
0
0
ARC
5
208
100
AcDbEntity
8
0
100
AcDbCircle
10
4.5000000596046439
20
64.000000938773155
30
0
40
0.99999999999999556
100
AcDbArc
50
216.86989764584416
51
270.00000000000006
0
ARC
5
209
100
AcDbEntity
8
0
100
AcDbCircle
10
8.2589631498908016
20
64.000000938773155
30
0
40
0.99999999999999645
100
AcDbArc
50
-90.000000000000398
51
30.256437163529689
0
CIRCLE
5
210
100
AcDbEntity
8
0
100
AcDbCircle
10
-13.91
20
77.556301569831689
30
0
40
1.5599999999999996
0
ARC
5
211
100
AcDbEntity
8
0
100
AcDbCircle
10
0.50000001490116297
20
54.000000789761543
30
0
40
0.99999999999999645
100
AcDbArc
50
269.99999999999989
51
323.13010235415578
0
ARC
5
212
100
AcDbEntity
8
0
100
AcDbCircle
10
-4.5000000596046439
20
56.000000849366188
30
0
40
0.99999999999999556
100
AcDbArc
50
36.869897645844169
51
90.000000000000057
0
LINE
5
213
100
AcDbEntity
8
0
100
AcDbLine
10
-1.292893233714612
20
61.707107705058547
30
0
11
-3.0000000447034836
21
60.000000894069672
31
0
0
ARC
5
214
100
AcDbEntity
8
0
100
AcDbCircle
10
0.58578645252806483
20
61.000000923871987
30
0
40
1.0000000000000051
100
AcDbArc
50
45.000000000000526
51
89.999999999999929
0
ARC
5
215
100
AcDbEntity
8
0
100
AcDbCircle
10
8.2589631498908016
20
56.000000849366188
30
0
40
0.99999999999999667
100
AcDbArc
50
-30.256437163529345
51
90.000000000000398
0
LINE
5
216
100
AcDbEntity
8
0
100
AcDbLine
10
-14.250000000000004
20
71.000001057982445
30
0
11
-14.250000000000004
21
66.000000983476639
31
0
0
LINE
5
217
100
AcDbEntity
8
0
100
AcDbLine
10
-1.3000000149011592
20
66.600000998377794
30
0
11
-3.7000000596046463
21
63.400000938773154
31
0
0
LINE
5
218
100
AcDbEntity
8
0
100
AcDbLine
10
0
20
67.0000009983778
30
0
11
0.50000001490116075
21
67.0000009983778
31
0
0
LINE
5
219
100
AcDbEntity
8
0
100
AcDbLine
10
-0.58578645252806627
20
58.000000864267349
30
0
11
0
21
58.000000864267349
31
0
0
LINE
5
220
100
AcDbEntity
8
0
100
AcDbLine
10
-8.2589631498907945
20
63.000000938773155
30
0
11
-4.5000000596046448
21
63.000000938773155
31
0
0
LINE
5
221
100
AcDbEntity
8
0
100
AcDbLine
10
1.292893233714612
20
61.707107705058547
30
0
11
3.0000000447034836
21
60.000000894069672
31
0
0
LINE
5
222
100
AcDbEntity
8
0
100
AcDbLine
10
3.2894086131477653
20
74.503872143111181
30
0
11
9.1227420507892294
21
64.503871964297247
31
0
0
LINE
5
223
100
AcDbEntity
8
0
100
AcDbLine
10
-2.4256297122493331
20
75.00000111758709
30
0
11
0
21
75.00000111758709
31
0
0
CIRCLE
5
224
100
AcDbEntity
8
0
100
AcDbCircle
10
29.461342240729063
20
26.921913833165153
30
0
40
1.4999999999999996
0
CIRCLE
5
225
100
AcDbEntity
8
0
100
AcDbCircle
10
-29.450806379549491
20
26.933438968316388
30
0
40
1.5000000000000013
0
CIRCLE
5
226
100
AcDbEntity
8
0
100
AcDbCircle
10
29.471873744834731
20
-26.911167247660902
30
0
40
1.4999999999999991
0
CIRCLE
5
227
100
AcDbEntity
8
0
100
AcDbCircle
10
-29.482400890254105
20
-26.899633871289048
30
0
40
1.4999999999999987
0
LINE
5
228
100
AcDbEntity
8
0
100
AcDbLine
10
-4.5000000596046448
20
57.000000849366188
30
0
11
-8.2589631498907945
21
57.000000849366188
31
0
0
LINE
5
229
100
AcDbEntity
8
0
100
AcDbLine
10
-2.4256297122493331
20
45.000000670552254
30
0
11
0
21
45.000000670552254
31
0
0
LINE
5
230
100
AcDbEntity
8
0
100
AcDbLine
10
-3.2894086131477653
20
45.496129645028162
30
0
11
-9.1227420507892294
21
55.496129823842104
31
0
0
LINE
5
231
100
AcDbEntity
8
0
100
AcDbLine
10
-0.50000001490116075
20
53.000000789761543
30
0
11
0.50000001490116075
21
53.000000789761543
31
0
0
LINE
5
232
100
AcDbEntity
8
0
100
AcDbLine
10
-3.7000000596046463
20
56.600000849366189
30
0
11
-1.3000000149011592
21
53.400000789761542
31
0
0
ENDSEC
0
SECTION
2
OBJECTS
0
DICTIONARY
5
C
100
AcDbDictionary
3
ACAD_GROUP
350
D
3
ACAD_MLINESTYLE
350
17
0
DICTIONARY
5
D
100
AcDbDictionary
0
DICTIONARY
5
1A
330
C
100
AcDbDictionary
0
DICTIONARY
5
17
100
AcDbDictionary
0
ENDSEC
0
EOF
