0
SECTION
2
HEADER
9
$INSUNITS
70
4
9
$ACADVER
1
AC1014
9
$HANDSEED
5
FFFF
0
ENDSEC
0
SECTION
2
TABLES
0
TABLE
2
VPORT
5
8
100
AcDbSymbolTable
0
ENDTAB
0
TABLE
2
LTYPE
5
5
100
AcDbSymbolTable
0
LTYPE
5
14
100
AcDbSymbolTableRecord
100
AcDbLinetypeTableRecord
2
BYBLOCK
70
0
0
LTYPE
5
15
100
AcDbSymbolTableRecord
100
AcDbLinetypeTableRecord
2
BYLAYER
70
0
0
ENDTAB
0
TABLE
2
LAYER
5
2
100
AcDbSymbolTable
70
2
0
LAYER
5
50
100
AcDbSymbolTableRecord
100
AcDbLayerTableRecord
2
0
70
0
6
CONTINUOUS
0
ENDTAB
0
TABLE
2
STYLE
5
3
100
AcDbSymbolTable
70
1
0
STYLE
5
11
100
AcDbSymbolTableRecord
100
AcDbTextStyleTableRecord
2
STANDARD
70
0
0
ENDTAB
0
TABLE
2
VIEW
5
6
100
AcDbSymbolTable
70
0
0
ENDTAB
0
TABLE
2
UCS
5
7
100
AcDbSymbolTable
70
0
0
ENDTAB
0
TABLE
2
APPID
5
9
100
AcDbSymbolTable
70
2
0
APPID
5
12
100
AcDbSymbolTableRecord
100
AcDbRegAppTableRecord
2
ACAD
70
0
0
ENDTAB
0
TABLE
2
DIMSTYLE
5
A
100
AcDbSymbolTable
70
1
0
ENDTAB
0
TABLE
2
BLOCK_RECORD
5
1
100
AcDbSymbolTable
70
1
0
BLOCK_RECORD
5
1F
100
AcDbSymbolTableRecord
100
AcDbBlockTableRecord
2
*MODEL_SPACE
0
BLOCK_RECORD
5
1B
100
AcDbSymbolTableRecord
100
AcDbBlockTableRecord
2
*PAPER_SPACE
0
ENDTAB
0
ENDSEC
0
SECTION
2
BLOCKS
0
BLOCK
5
20
100
AcDbEntity
100
AcDbBlockBegin
2
*MODEL_SPACE
0
ENDBLK
5
21
100
AcDbEntity
100
AcDbBlockEnd
0
BLOCK
5
1C
100
AcDbEntity
100
AcDbBlockBegin
2
*PAPER_SPACE
0
ENDBLK
5
1D
100
AcDbEntity
100
AcDbBlockEnd
0
ENDSEC
0
SECTION
2
ENTITIES
0
LINE
5
100
100
AcDbEntity
8
0
100
AcDbLine
10
30.319780366915413
20
32.884523601532798
30
0
11
35.33431434016746
21
26.373020397776713
31
0
0
LINE
5
101
100
AcDbEntity
8
0
100
AcDbLine
10
-30.319780366915417
20
32.884523601532798
30
0
11
-35.33431434016746
21
26.373020397776713
31
0
0
ARC
5
102
100
AcDbEntity
8
0
100
AcDbCircle
10
-32.165156106396317
20
23.932439301127673
30
0
40
4.0000000000000089
100
AcDbArc
50
142.39999202628755
51
219.82890262181368
0
LINE
5
103
100
AcDbEntity
8
0
100
AcDbLine
10
-35.236998206934246
20
21.370450599091146
30
0
11
-24.847452676008011
21
8.9133139450592225
31
0
0
ARC
5
104
100
AcDbEntity
8
0
100
AcDbCircle
10
-27.535314513978662
20
6.6715738307772909
30
0
40
3.4999999999999609
100
AcDbArc
50
0
51
39.828902621813675
0
LINE
5
105
100
AcDbEntity
8
0
100
AcDbLine
10
-24.035314513978705
20
6.6715738307772909
30
0
11
-24.035314513978705
21
0
31
0
0
LINE
5
106
100
AcDbEntity
8
0
100
AcDbLine
10
-24.035314513978705
20
-6.6715738307772909
30
0
11
-24.035314513978705
21
0
31
0
0
LINE
5
107
100
AcDbEntity
8
0
100
AcDbLine
10
-35.236998206934246
20
-21.370450599091146
30
0
11
-24.847452676008011
21
-8.9133139450592225
31
0
0
ARC
5
108
100
AcDbEntity
8
0
100
AcDbCircle
10
-27.535314513978662
20
-6.6715738307772909
30
0
40
3.4999999999999618
100
AcDbArc
50
-39.828902621813654
51
0
0
ARC
5
109
100
AcDbEntity
8
0
100
AcDbCircle
10
-32.165156106396317
20
-23.932439301127673
30
0
40
4.0000000000000107
100
AcDbArc
50
140.17109737818635
51
217.60000797371242
0
LINE
5
110
100
AcDbEntity
8
0
100
AcDbLine
10
-29.224620891484562
20
-34.306616755339306
30
0
11
-35.33431434016746
21
-26.373020397776713
31
0
0
ARC
5
111
100
AcDbEntity
8
0
100
AcDbCircle
10
32.165156106396317
20
23.932439301127673
30
0
40
4.0000000000000107
100
AcDbArc
50
-39.828902621813654
51
37.600007973712444
0
LINE
5
112
100
AcDbEntity
8
0
100
AcDbLine
10
35.236998206934246
20
21.370450599091146
30
0
11
24.847452676008011
21
8.9133139450592207
31
0
0
ARC
5
113
100
AcDbEntity
8
0
100
AcDbCircle
10
27.535314513978662
20
6.6715738307772918
30
0
40
3.4999999999999605
100
AcDbArc
50
140.17109737818637
51
180
0
LINE
5
114
100
AcDbEntity
8
0
100
AcDbLine
10
24.035314513978705
20
6.6715738307772909
30
0
11
24.035314513978705
21
0
31
0
0
LINE
5
115
100
AcDbEntity
8
0
100
AcDbLine
10
24.035314513978705
20
-6.6715738307772909
30
0
11
24.035314513978705
21
0
31
0
0
ARC
5
116
100
AcDbEntity
8
0
100
AcDbCircle
10
27.535314513978662
20
-6.6715738307772918
30
0
40
3.4999999999999609
100
AcDbArc
50
180
51
219.82890262181363
0
LINE
5
117
100
AcDbEntity
8
0
100
AcDbLine
10
35.236998206934246
20
-21.370450599091146
30
0
11
24.847452676008011
21
-8.9133139450592207
31
0
0
ARC
5
118
100
AcDbEntity
8
0
100
AcDbCircle
10
32.165156106396317
20
-23.932439301127673
30
0
40
4.0000000000000124
100
AcDbArc
50
-37.600007973712366
51
39.828902621813661
0
LINE
5
119
100
AcDbEntity
8
0
100
AcDbLine
10
29.336056937811911
20
-34.161914141587964
30
0
11
35.334314340167467
21
-26.373020397776713
31
0
0
CIRCLE
5
120
100
AcDbEntity
8
0
100
AcDbCircle
10
15.25
20
15.250000000000002
30
0
40
2.25
0
CIRCLE
5
121
100
AcDbEntity
8
0
100
AcDbCircle
10
-15.25
20
15.250000000000002
30
0
40
2.25
0
CIRCLE
5
122
100
AcDbEntity
8
0
100
AcDbCircle
10
-29.450806379549491
20
26.933438968316388
30
0
40
2.25
0
CIRCLE
5
123
100
AcDbEntity
8
0
100
AcDbCircle
10
29.461342240729063
20
26.921913833165153
30
0
40
2.25
0
CIRCLE
5
124
100
AcDbEntity
8
0
100
AcDbCircle
10
15.25
20
-15.250000000000002
30
0
40
2.25
0
CIRCLE
5
125
100
AcDbEntity
8
0
100
AcDbCircle
10
29.471873744834731
20
-26.911167247660902
30
0
40
2.25
0
CIRCLE
5
126
100
AcDbEntity
8
0
100
AcDbCircle
10
-15.250000000000004
20
-15.249999959999966
30
0
40
2.25
0
CIRCLE
5
127
100
AcDbEntity
8
0
100
AcDbCircle
10
-29.482400890254105
20
-26.899633871289048
30
0
40
2.25
0
ARC
5
128
100
AcDbEntity
8
0
100
AcDbCircle
10
-21.28325955955383
20
-33.026341261638997
30
0
40
1.6999999999998399
100
AcDbArc
50
276.85337233738034
51
300.30087283888287
0
LINE
5
129
100
AcDbEntity
8
0
100
AcDbLine
10
-29.000420446585441
20
-34.597746882890796
30
0
11
-28.946278228202811
21
-34.674348754372105
31
0
0
LWPOLYLINE
5
130
100
AcDbEntity
8
0
100
AcDbPolyline
90
12
70
1
43
0.0
10
5.0621779168245595
20
-4.0773503213436904
10
1.0000000000000007
20
-6.4226498351185022
42
-0.26794919243112331
10
-1.0000000000000009
20
-6.4226498351185013
10
-5.0621779168245604
20
-4.0773503213436877
42
-0.26794919243112264
10
-6.0621779168245604
20
-2.3452995137748101
10
-6.0621779168245578
20
2.3452995137748145
42
-0.26794919243112308
10
-5.0621779168245578
20
4.0773503213436912
10
-0.99999999999999734
20
6.422649835118504
42
-0.26794919243112214
10
1.000000000000002
20
6.4226498351185022
10
5.0621779168245604
20
4.0773503213436895
42
-0.26794919243112247
10
6.0621779168245604
20
2.3452995137748118
10
6.0621779168245595
20
-2.3452995137748123
42
-0.26794919243112264
0
LINE
5
131
100
AcDbEntity
8
0
100
AcDbLine
10
26.002123666861472
20
-34.738650950910376
30
0
11
4.3583397808209803
21
-20.805645225621316
31
0
0
LINE
5
132
100
AcDbEntity
8
0
100
AcDbLine
10
-4.3417408779584052
20
-20.831264194586304
30
0
11
-25.878331164352524
21
-34.875347636860155
31
0
0
ARC
5
133
100
AcDbEntity
8
0
100
AcDbCircle
10
0.028069781321852505
20
-27.532365208751131
30
0
40
8.0000000000000089
100
AcDbArc
50
57.228927905745721
51
123.10850679448009
0
ARC
5
134
100
AcDbEntity
8
0
100
AcDbCircle
10
27.355333041704952
20
-32.636550956182312
30
0
40
2.5000000000000036
100
AcDbArc
50
237.22892790574565
51
322.39999202628741
0
ARC
5
135
100
AcDbEntity
8
0
100
AcDbCircle
10
-27.2438969953776
20
-32.781253569933639
30
0
40
2.5000000000000093
100
AcDbArc
50
217.60000797371276
51
303.10850679447992
0
LINE
5
136
100
AcDbEntity
8
0
100
AcDbLine
10
-26.819089903902814
20
33.835638531688545
30
0
11
-2.6222508379299336
21
24.059460653360738
31
0
0
LINE
5
137
100
AcDbEntity
8
0
100
AcDbLine
10
2.6222508379299243
20
24.05946065336073
30
0
11
26.819089903902817
21
33.835638531688531
31
0
0
ARC
5
138
100
AcDbEntity
8
0
100
AcDbCircle
10
-27.942911691587064
20
31.054087779046014
30
0
40
3.0000000000000089
100
AcDbArc
50
67.999958649820499
51
142.39999202628749
0
ARC
5
139
100
AcDbEntity
8
0
100
AcDbCircle
10
27.942911691587074
20
31.054087779046021
30
0
40
2.9999999999999916
100
AcDbArc
50
37.6000079737126
51
112.00004135017979
0
ARC
5
140
100
AcDbEntity
8
0
100
AcDbCircle
10
1.9428902930940239e-15
20
30.549745742859912
30
0
40
6.9999999999999707
100
AcDbArc
50
247.99995864982012
51
292.00004135017974
0
ENDSEC
0
SECTION
2
OBJECTS
0
DICTIONARY
5
C
100
AcDbDictionary
3
ACAD_GROUP
350
D
3
ACAD_MLINESTYLE
350
17
0
DICTIONARY
5
D
100
AcDbDictionary
0
DICTIONARY
5
1A
330
C
100
AcDbDictionary
0
DICTIONARY
5
17
100
AcDbDictionary
0
ENDSEC
0
EOF
