0
SECTION
2
HEADER
9
$INSUNITS
70
4
9
$ACADVER
1
AC1014
9
$HANDSEED
5
FFFF
0
ENDSEC
0
SECTION
2
TABLES
0
TABLE
2
VPORT
5
8
100
AcDbSymbolTable
0
ENDTAB
0
TABLE
2
LTYPE
5
5
100
AcDbSymbolTable
0
LTYPE
5
14
100
AcDbSymbolTableRecord
100
AcDbLinetypeTableRecord
2
BYBLOCK
70
0
0
LTYPE
5
15
100
AcDbSymbolTableRecord
100
AcDbLinetypeTableRecord
2
BYLAYER
70
0
0
ENDTAB
0
TABLE
2
LAYER
5
2
100
AcDbSymbolTable
70
2
0
LAYER
5
50
100
AcDbSymbolTableRecord
100
AcDbLayerTableRecord
2
0
70
0
6
CONTINUOUS
0
ENDTAB
0
TABLE
2
STYLE
5
3
100
AcDbSymbolTable
70
1
0
STYLE
5
11
100
AcDbSymbolTableRecord
100
AcDbTextStyleTableRecord
2
STANDARD
70
0
0
ENDTAB
0
TABLE
2
VIEW
5
6
100
AcDbSymbolTable
70
0
0
ENDTAB
0
TABLE
2
UCS
5
7
100
AcDbSymbolTable
70
0
0
ENDTAB
0
TABLE
2
APPID
5
9
100
AcDbSymbolTable
70
2
0
APPID
5
12
100
AcDbSymbolTableRecord
100
AcDbRegAppTableRecord
2
ACAD
70
0
0
ENDTAB
0
TABLE
2
DIMSTYLE
5
A
100
AcDbSymbolTable
70
1
0
ENDTAB
0
TABLE
2
BLOCK_RECORD
5
1
100
AcDbSymbolTable
70
1
0
BLOCK_RECORD
5
1F
100
AcDbSymbolTableRecord
100
AcDbBlockTableRecord
2
*MODEL_SPACE
0
BLOCK_RECORD
5
1B
100
AcDbSymbolTableRecord
100
AcDbBlockTableRecord
2
*PAPER_SPACE
0
ENDTAB
0
ENDSEC
0
SECTION
2
BLOCKS
0
BLOCK
5
20
100
AcDbEntity
100
AcDbBlockBegin
2
*MODEL_SPACE
0
ENDBLK
5
21
100
AcDbEntity
100
AcDbBlockEnd
0
BLOCK
5
1C
100
AcDbEntity
100
AcDbBlockBegin
2
*PAPER_SPACE
0
ENDBLK
5
1D
100
AcDbEntity
100
AcDbBlockEnd
0
ENDSEC
0
SECTION
2
ENTITIES
0
LINE
5
100
100
AcDbEntity
8
0
100
AcDbLine
10
19.972524015320474
20
-17.005924936229881
30
0
11
14.972524015320472
21
-17.005924936229881
31
0
0
LINE
5
101
100
AcDbEntity
8
0
100
AcDbLine
10
23.002143422263007
20
-11.395839526444218
30
0
11
23.002815982469855
21
-14.987378293648243
31
0
0
LINE
5
102
100
AcDbEntity
8
0
100
AcDbLine
10
-11.027476446615532
20
-17.005924936229889
30
0
11
-6.0274764466155322
21
-17.005924936229889
31
0
0
LINE
5
103
100
AcDbEntity
8
0
100
AcDbLine
10
-6.0274764466155322
20
-17.005924936229889
30
0
11
-6.0274764466155322
21
-15.005924936229887
31
0
0
LINE
5
104
100
AcDbEntity
8
0
100
AcDbLine
10
19.972524015320474
20
-15.00592493622988
30
0
11
19.972524015320474
21
-17.005924936229881
31
0
0
LINE
5
105
100
AcDbEntity
8
0
100
AcDbLine
10
23.002815982469855
20
-14.987378293648243
30
0
11
20.972219770561349
21
-14.988484976532304
31
0
0
LINE
5
106
100
AcDbEntity
8
0
100
AcDbLine
10
-13.027476476417855
20
-15.005924936229887
30
0
11
-13.997181890100137
21
-15.00754343732117
31
0
0
LINE
5
107
100
AcDbEntity
8
0
100
AcDbLine
10
-11.027476446615532
20
-15.005924936229887
30
0
11
-11.027476446615532
21
-17.005924936229889
31
0
0
LINE
5
108
100
AcDbEntity
8
0
100
AcDbLine
10
-14.003736377552451
20
19.994075071344447
30
0
11
-13.027476476417863
21
19.994075063770122
31
0
0
LINE
5
109
100
AcDbEntity
8
0
100
AcDbLine
10
14.972524015320472
20
-17.005924936229881
30
0
11
14.972524015320472
21
-15.00592493622988
31
0
0
LINE
5
110
100
AcDbEntity
8
0
100
AcDbLine
10
-12.027476149586354
20
-15.006469939982399
30
0
11
-13.997181890100137
21
-15.00754343732117
31
0
0
CIRCLE
5
111
100
AcDbEntity
8
0
100
AcDbCircle
10
7.9902604473635827e-06
20
8.7313673402330963e-05
30
0
40
1.5600000000000003
0
ARC
5
112
100
AcDbEntity
8
0
100
AcDbCircle
10
20.47252401532047
20
-15.00592493622988
30
0
40
0.50000000000000522
100
AcDbArc
50
1.9988776195743072
51
180
0
ARC
5
113
100
AcDbEntity
8
0
100
AcDbCircle
10
14.472524015320472
20
-15.00592493622988
30
0
40
0.50000000000000044
100
AcDbArc
50
0
51
178.43847386778711
0
ARC
5
114
100
AcDbEntity
8
0
100
AcDbCircle
10
-5.5274764466155313
20
-15.005924936229887
30
0
40
0.5
100
AcDbArc
50
0.37471909281829929
51
180
0
ARC
5
115
100
AcDbEntity
8
0
100
AcDbCircle
10
-11.527476446615532
20
-15.005924936229887
30
0
40
0.50000000000000044
100
AcDbArc
50
0
51
180.06245284204201
0
LINE
5
116
100
AcDbEntity
8
0
100
AcDbLine
10
-13.027476476417874
20
19.994075063770087
30
0
11
-14.027476491319035
21
19.994075063770087
31
0
0
LINE
5
117
100
AcDbEntity
8
0
100
AcDbLine
10
-6.027476446615557
20
21.994075063770097
30
0
11
-6.0274764466155553
21
19.994075063770097
31
0
0
LINE
5
118
100
AcDbEntity
8
0
100
AcDbLine
10
-11.027476446615555
20
21.994075063770097
30
0
11
-6.027476446615557
21
21.994075063770097
31
0
0
LINE
5
119
100
AcDbEntity
8
0
100
AcDbLine
10
-11.027476446615552
20
19.99407506377009
30
0
11
-11.027476446615555
21
21.994075063770097
31
0
0
ARC
5
120
100
AcDbEntity
8
0
100
AcDbCircle
10
20.472524015320445
20
19.994075063770126
30
0
40
0.49999999999999822
100
AcDbArc
50
-180
51
0
0
LINE
5
121
100
AcDbEntity
8
0
100
AcDbLine
10
14.972524015320445
20
21.994075063770122
30
0
11
14.972524015320449
21
19.994075063770119
31
0
0
LINE
5
122
100
AcDbEntity
8
0
100
AcDbLine
10
22.88481927329061
20
19.994075063770129
30
0
11
20.972524015320442
21
19.994075063770126
31
0
0
LINE
5
123
100
AcDbEntity
8
0
100
AcDbLine
10
19.972524015320445
20
19.994075063770126
30
0
11
19.972524015320445
21
21.994075063770126
31
0
0
LINE
5
124
100
AcDbEntity
8
0
100
AcDbLine
10
19.972524015320445
20
21.994075063770126
30
0
11
14.972524015320445
21
21.994075063770122
31
0
0
ARC
5
125
100
AcDbEntity
8
0
100
AcDbCircle
10
-11.527476446615555
20
19.994075063770087
30
0
40
0.49999999999999822
100
AcDbArc
50
-180
51
0
0
LINE
5
126
100
AcDbEntity
8
0
100
AcDbLine
10
-12.027476446615552
20
19.994075063770087
30
0
11
-14.027476491319035
21
19.994075063770087
31
0
0
LWPOLYLINE
5
127
100
AcDbEntity
8
0
100
AcDbPolyline
90
4
70
1
43
0.0
10
6.5794565826768858
20
8.2598033315975421
42
-0.38753548146122363
10
8.8289569138126573
20
-5.7933686067813461
42
-0.99999999999999989
10
6.220401462004375
20
-4.0816915184141314
42
0.38753548146122363
10
4.635526228704169
20
5.8194068927164473
42
-0.99999999999999989
0
LINE
5
128
100
AcDbEntity
8
0
100
AcDbLine
10
-14.000459133826295
20
-11.037593530959697
30
0
11
-5.5218463746704174
21
-5.2368787795304685
31
0
0
LINE
5
129
100
AcDbEntity
8
0
100
AcDbLine
10
-4.6511559769813493
20
-3.5851342068488083
30
0
11
-4.6555313835830017
21
4.4430771254930699
31
0
0
LINE
5
130
100
AcDbEntity
8
0
100
AcDbLine
10
-5.2539108075545737
20
6.2392799122523535
30
0
11
-14.003349313204779
21
17.927112744529058
31
0
0
LINE
5
131
100
AcDbEntity
8
0
100
AcDbLine
10
22.972524060023964
20
-11.381822223516844
30
0
11
23.002143422263007
21
-11.395839526444218
31
0
0
LINE
5
132
100
AcDbEntity
8
0
100
AcDbLine
10
-13.997181890100137
20
-15.00754343732117
30
0
11
-13.997925637073472
21
-11.035860217692036
31
0
0
LINE
5
133
100
AcDbEntity
8
0
100
AcDbLine
10
-14.003349313204779
20
17.927112744529058
30
0
11
-14.003736377552451
21
19.994075071344447
31
0
0
LINE
5
134
100
AcDbEntity
8
0
100
AcDbLine
10
22.972524060023968
20
-15.00592493622988
30
0
11
22.972524060023968
21
-14.98739480286455
31
0
0
ARC
5
135
100
AcDbEntity
8
0
100
AcDbCircle
10
-7.6555309380392087
20
4.4414421139927294
30
0
40
3.000000000000008
100
AcDbArc
50
0.031226421022943793
51
36.818296301947825
0
ARC
5
136
100
AcDbEntity
8
0
100
AcDbCircle
10
-6.6511556799521543
20
-3.5862242145156973
30
0
40
2.0000000000000058
100
AcDbArc
50
-55.62168679015879
51
0.031226421011272123
0
LINE
5
137
100
AcDbEntity
8
0
100
AcDbLine
10
-2.9090494509332943
20
-15.001500361738564
30
0
11
-0.63616477100219271
21
-9.9217791228514276
31
0
0
LINE
5
138
100
AcDbEntity
8
0
100
AcDbLine
10
1.534283326981619
20
-8.7685812176211648
30
0
11
8.997513557008201
21
-10.075042991679064
31
0
0
LINE
5
139
100
AcDbEntity
8
0
100
AcDbLine
10
10.033852310257647
20
-10.795599284070505
30
0
11
12.490035316624944
21
-14.997477327746571
31
0
0
ARC
5
140
100
AcDbEntity
8
0
100
AcDbCircle
10
1.1894211153961363
20
-10.738624378321042
30
0
40
1.9999999999999978
100
AcDbArc
50
80.070801131550439
51
155.89421480947956
0
ARC
5
141
100
AcDbEntity
8
0
100
AcDbCircle
10
8.7388668983190865
20
-11.552575362203982
30
0
40
1.5000000000000071
100
AcDbArc
50
30.308169041885634
51
80.070801131550411
0
LINE
5
142
100
AcDbEntity
8
0
100
AcDbLine
10
13.972709695853919
20
-14.992299736921783
30
0
11
12.487481948576667
21
-14.99310919185781
31
0
0
LINE
5
143
100
AcDbEntity
8
0
100
AcDbLine
10
-2.9090494509332943
20
-15.001500361738564
30
0
11
-5.0274871397453609
21
-15.002654918571356
31
0
0
LINE
5
144
100
AcDbEntity
8
0
100
AcDbLine
10
-6.0274764466155553
20
19.994075063770097
30
0
11
-0.58734311672334671
21
12.726937989314848
31
0
0
LINE
5
145
100
AcDbEntity
8
0
100
AcDbLine
10
1.0137369702664083
20
11.925496521487929
30
0
11
8.1217593779370922
21
11.925496521487934
31
0
0
LINE
5
146
100
AcDbEntity
8
0
100
AcDbLine
10
9.7430290404110593
20
12.754392477629516
30
0
11
14.972524015320449
21
19.994075063770119
31
0
0
ARC
5
147
100
AcDbEntity
8
0
100
AcDbCircle
10
1.0137369702664054
20
13.925496521487927
30
0
40
1.9999999999999998
100
AcDbArc
50
216.81829630194781
51
270.00000000000011
0
ARC
5
148
100
AcDbEntity
8
0
100
AcDbCircle
10
8.1217593779370851
20
13.925496521487947
30
0
40
2.0000000000000129
100
AcDbArc
50
270.00000000000023
51
324.15800259214188
0
LINE
5
149
100
AcDbEntity
8
0
100
AcDbLine
10
15.82459066495195
20
4.5686274068900605
30
0
11
15.824590664951963
21
-3.3005220991145237
31
0
0
LINE
5
150
100
AcDbEntity
8
0
100
AcDbLine
10
22.972524060023968
20
-14.98739480286455
30
0
11
22.972524060023964
21
-11.381822223516844
31
0
0
LINE
5
151
100
AcDbEntity
8
0
100
AcDbLine
10
22.972524060023964
20
-11.381822223516844
30
0
11
16.399213255826332
21
-4.7034829829435401
31
0
0
LINE
5
152
100
AcDbEntity
8
0
100
AcDbLine
10
22.88481927329061
20
19.994075063770129
30
0
11
22.884819273290621
21
17.00000025331974
31
0
0
LINE
5
153
100
AcDbEntity
8
0
100
AcDbLine
10
22.884819273290621
20
17.00000025331974
30
0
11
16.105217003554753
21
5.5902703056044833
31
0
0
ARC
5
154
100
AcDbEntity
8
0
100
AcDbCircle
10
17.824590664951991
20
-3.3005220991145108
30
0
40
2.0000000000000284
100
AcDbArc
50
180
51
224.54590106784914
0
ARC
5
155
100
AcDbEntity
8
0
100
AcDbCircle
10
17.824590664952012
20
4.568627406890049
30
0
40
2.0000000000000635
100
AcDbArc
50
149.28143842599053
51
180
0
ENDSEC
0
SECTION
2
OBJECTS
0
DICTIONARY
5
C
100
AcDbDictionary
3
ACAD_GROUP
350
D
3
ACAD_MLINESTYLE
350
17
0
DICTIONARY
5
D
100
AcDbDictionary
0
DICTIONARY
5
1A
330
C
100
AcDbDictionary
0
DICTIONARY
5
17
100
AcDbDictionary
0
ENDSEC
0
EOF
