0
SECTION
2
HEADER
9
$INSUNITS
70
4
9
$ACADVER
1
AC1014
9
$HANDSEED
5
FFFF
0
ENDSEC
0
SECTION
2
TABLES
0
TABLE
2
VPORT
5
8
100
AcDbSymbolTable
0
ENDTAB
0
TABLE
2
LTYPE
5
5
100
AcDbSymbolTable
0
LTYPE
5
14
100
AcDbSymbolTableRecord
100
AcDbLinetypeTableRecord
2
BYBLOCK
70
0
0
LTYPE
5
15
100
AcDbSymbolTableRecord
100
AcDbLinetypeTableRecord
2
BYLAYER
70
0
0
ENDTAB
0
TABLE
2
LAYER
5
2
100
AcDbSymbolTable
70
2
0
LAYER
5
50
100
AcDbSymbolTableRecord
100
AcDbLayerTableRecord
2
0
70
0
6
CONTINUOUS
0
ENDTAB
0
TABLE
2
STYLE
5
3
100
AcDbSymbolTable
70
1
0
STYLE
5
11
100
AcDbSymbolTableRecord
100
AcDbTextStyleTableRecord
2
STANDARD
70
0
0
ENDTAB
0
TABLE
2
VIEW
5
6
100
AcDbSymbolTable
70
0
0
ENDTAB
0
TABLE
2
UCS
5
7
100
AcDbSymbolTable
70
0
0
ENDTAB
0
TABLE
2
APPID
5
9
100
AcDbSymbolTable
70
2
0
APPID
5
12
100
AcDbSymbolTableRecord
100
AcDbRegAppTableRecord
2
ACAD
70
0
0
ENDTAB
0
TABLE
2
DIMSTYLE
5
A
100
AcDbSymbolTable
70
1
0
ENDTAB
0
TABLE
2
BLOCK_RECORD
5
1
100
AcDbSymbolTable
70
1
0
BLOCK_RECORD
5
1F
100
AcDbSymbolTableRecord
100
AcDbBlockTableRecord
2
*MODEL_SPACE
0
BLOCK_RECORD
5
1B
100
AcDbSymbolTableRecord
100
AcDbBlockTableRecord
2
*PAPER_SPACE
0
ENDTAB
0
ENDSEC
0
SECTION
2
BLOCKS
0
BLOCK
5
20
100
AcDbEntity
100
AcDbBlockBegin
2
*MODEL_SPACE
0
ENDBLK
5
21
100
AcDbEntity
100
AcDbBlockEnd
0
BLOCK
5
1C
100
AcDbEntity
100
AcDbBlockBegin
2
*PAPER_SPACE
0
ENDBLK
5
1D
100
AcDbEntity
100
AcDbBlockEnd
0
ENDSEC
0
SECTION
2
ENTITIES
0
LWPOLYLINE
5
100
100
AcDbEntity
8
0
100
AcDbPolyline
90
9
70
1
43
0.0
10
-7.4168406425225832
20
-29.241618678697755
42
-0.3436274159268462
10
-6.7130223872588415
20
-25.621353738586023
10
-6.7059993817013446
20
-25.615233638056019
42
-0.18114520781027388
10
-5.0635456208228469
20
-25.00000037252903
10
-3.9826256326419784
20
-25.00000037252903
42
-0.41421356237309209
10
-2.9826256326419784
20
-26.00000037252903
10
-2.9826256326419798
20
-32.803539027389981
42
-0.36738664592764547
10
-3.4017430443292263
20
-33.296953667330698
42
-0.32676728714261205
10
-6.0351249594912915
20
-31.9620011832472
0
LWPOLYLINE
5
101
100
AcDbEntity
8
0
100
AcDbPolyline
90
8
70
1
43
0.0
10
-4.4412620798761999
20
-64.026106725753877
10
-7.8122770662173515
20
-62.527877842935588
42
-0.29639153736374235
10
-9.0000001341104543
20
-60.700254745695077
10
-9.000000134110465
20
-59.978168490499925
42
-0.23144282478505457
10
-8.2278813611402963
20
-58.399464055747259
10
-4.649064227337675
20
-55.615939618345223
42
-0.6241111318741851
10
-3.0351236138227544
20
-56.405291835721556
10
-3.035123613822754
20
-63.112295177133618
42
-0.54274379487779589
0
ARC
5
102
100
AcDbEntity
8
0
100
AcDbCircle
10
12.127781589610143
20
-77.563947140958774
30
0
40
3.0000000000000497
100
AcDbArc
50
282.54026163438391
51
356.8731682189499
0
LWPOLYLINE
5
103
100
AcDbEntity
8
0
100
AcDbPolyline
90
8
70
1
43
0.0
10
-12.735351950215284
20
-43.587890086847636
42
-0.3524543607055094
10
-11.505345455259198
20
-41.402138730466405
10
-4.4789447372458762
20
-38.636821013901745
42
-0.57475737749695954
10
-2.9905890133485888
20
-39.515045852083098
10
-3.0311795497279785
20
-46.777602198195645
42
-0.22348236279002237
10
-3.5812994370744056
20
-47.930154755431303
10
-8.3282521186054765
20
-51.814025131229471
42
-0.57634472631352529
10
-11.567515546784295
20
-50.59490850743353
0
LINE
5
104
100
AcDbEntity
8
0
100
AcDbLine
10
12.779158394938957
20
-80.492378164131409
30
0
11
9.1245647467753663
21
-81.305276783384727
31
0
0
ARC
5
105
100
AcDbEntity
8
0
100
AcDbCircle
10
3.9178426884559636
20
-73.00000111758709
30
0
40
1.9999999999999929
100
AcDbArc
50
269.99999999999983
51
272.28775005223707
0
CIRCLE
5
106
100
AcDbEntity
8
0
100
AcDbCircle
10
-13.970970945131036
20
-32.556301569831689
30
0
40
1.5600000000000014
0
CIRCLE
5
107
100
AcDbEntity
8
0
100
AcDbCircle
10
11.57215436070878
20
-76.850806767155277
30
0
40
1.5600000000000016
0
ARC
5
108
100
AcDbEntity
8
0
100
AcDbCircle
10
-12.125972290656311
20
-77.564070821216347
30
0
40
2.9999999999999742
100
AcDbArc
50
183.11301614168681
51
257.4597383656174
0
ARC
5
109
100
AcDbEntity
8
0
100
AcDbCircle
10
-3.9178426884559636
20
-73.00000111758709
30
0
40
1.9999999999999947
100
AcDbArc
50
267.74584764799977
51
270.00000000000017
0
LINE
5
110
100
AcDbEntity
8
0
100
AcDbLine
10
-10
20
-40
30
0
11
-9.9035069511426705
21
-40
31
0
0
CIRCLE
5
111
100
AcDbEntity
8
0
100
AcDbCircle
10
13.970970945131036
20
-32.556301569831689
30
0
40
1.5600000000000001
0
CIRCLE
5
112
100
AcDbEntity
8
0
100
AcDbCircle
10
-11.57215436070878
20
-76.850806767155277
30
0
40
1.5600000000000016
0
LINE
5
113
100
AcDbEntity
8
0
100
AcDbLine
10
-12.777349095985038
20
-80.492501844388912
30
0
11
-9.1233114840512535
21
-81.305276783384727
31
0
0
LINE
5
114
100
AcDbEntity
8
0
100
AcDbLine
10
17.506298078667356
20
-34.105385760808225
30
0
11
15.123315296312887
21
-77.727586414997788
31
0
0
LINE
5
115
100
AcDbEntity
8
0
100
AcDbLine
10
-17.493701773024391
20
-34.109872560056502
30
0
11
-15.121545368349619
21
-77.726987782269788
31
0
0
ARC
5
116
100
AcDbEntity
8
0
100
AcDbCircle
10
-14.493701773024343
20
77.970232829032398
30
0
40
3.0000000000000551
100
AcDbArc
50
111.79849746820493
51
180
0
LWPOLYLINE
5
117
100
AcDbEntity
8
0
100
AcDbPolyline
90
3
70
1
43
0.0
10
-10.910738881015906
20
77.622880396423014
10
-11
20
77.460032860356932
10
-11
20
77.769852825197617
0
LWPOLYLINE
5
118
100
AcDbEntity
8
0
100
AcDbPolyline
90
3
70
1
43
0.0
10
11
20
77.80051836648947
10
10.987186618041223
20
77.80051836648947
42
-0.010421189777137402
10
11
20
77.92490081435956
0
LINE
5
119
100
AcDbEntity
8
0
100
AcDbLine
10
15.35114629575256
20
80.860411289418138
30
0
11
15.620614640868673
21
80.752607731237575
31
0
0
LWPOLYLINE
5
120
100
AcDbEntity
8
0
100
AcDbPolyline
90
25
70
1
43
0.0
10
3.2894086131477653
20
44.654258138547874
42
-0.26675029845520865
10
2.4256297122493331
20
44.158129164071973
10
2.2232479038404316
20
44.158129164071973
42
-0.4172567237445281
10
1.2233017632338727
20
45.168507790476667
10
1.2966002131966945
20
52.230569694888757
42
-0.1596157428285867
10
1.4965463538032544
20
52.820191068484057
10
3.700000059604645
20
55.758129342885908
42
-0.23606797749979042
10
4.5000000596046448
20
56.158129342885907
10
8.2589631498907945
20
56.158129342885907
42
-0.22773508231206313
10
9.0395879116210782
20
55.783129327984753
42
0.2277350823120676
10
9.8202126733513548
20
55.408129313083585
10
12.000000193715096
20
55.408129313083585
42
-0.4142135623730957
10
13.000000193715096
20
54.408129313083585
10
13.000000193715094
20
53.908129313083577
42
-0.4142135623730957
10
12.000000193715096
20
52.908129313083585
10
8.3051964146525439
20
52.908129313083585
42
0.26675029845518994
10
8.0028737993380901
20
52.734484172017005
10
7.5230915197209258
20
51.912000264101863
42
0.57884312515181124
10
8.3868704206193563
20
50.408129238577779
10
12.000000193715096
20
50.408129238577779
42
-0.4142135623730957
10
13.000000193715096
20
49.408129238577779
10
13.000000193715094
20
48.908129238577772
42
-0.4142135623730957
10
12.000000193715096
20
47.908129238577779
10
5.7618704206193572
20
47.908129238577779
42
0.26675029845521114
10
4.8980915197209267
20
47.41200026410187
0
ARC
5
121
100
AcDbEntity
8
0
100
AcDbCircle
10
0.58578645252806483
20
59.000000864267356
30
0
40
1.0000000000000053
100
AcDbArc
50
270.00000000000011
51
314.99999999999949
0
LINE
5
122
100
AcDbEntity
8
0
100
AcDbLine
10
0.58578645252806627
20
58.000000864267349
30
0
11
0
21
58.000000864267349
31
0
0
CIRCLE
5
123
100
AcDbEntity
8
0
100
AcDbCircle
10
-13.908048975900325
20
32.557271714880493
30
0
40
1.5600000000000009
0
CIRCLE
5
124
100
AcDbEntity
8
0
100
AcDbCircle
10
-13.91
20
77.556301569831689
30
0
40
1.5599999999999996
0
LINE
5
125
100
AcDbEntity
8
0
100
AcDbLine
10
6.7059993817013446
20
-25.615233638056019
30
0
11
6.7130223872588415
21
-25.621353738586023
31
0
0
CIRCLE
5
126
100
AcDbEntity
8
0
100
AcDbCircle
10
13.970970945131036
20
32.556301569831689
30
0
40
1.5600000000000012
0
ARC
5
127
100
AcDbEntity
8
0
100
AcDbCircle
10
14.506298078667401
20
77.967235476187341
30
0
40
2.9999999999999627
100
AcDbArc
50
0
51
68.195617462954814
0
CIRCLE
5
128
100
AcDbEntity
8
0
100
AcDbCircle
10
13.977152347075211
20
77.555355279540677
30
0
40
1.5599999999999996
0
LINE
5
129
100
AcDbEntity
8
0
100
AcDbLine
10
17.506298078667363
20
77.967235476187341
30
0
11
17.506298078667367
21
34.164552918687747
31
0
0
LINE
5
130
100
AcDbEntity
8
0
100
AcDbLine
10
-17.49370177302438
20
34.169124760184644
30
0
11
-17.493701773024398
21
77.970232829032398
31
0
0
LINE
5
131
100
AcDbEntity
8
0
100
AcDbLine
10
17.506298078667367
20
34.164552918687747
30
0
11
17.506298078667356
21
-34.105385760808225
31
0
0
LINE
5
132
100
AcDbEntity
8
0
100
AcDbLine
10
-17.49370177302438
20
34.169124760184644
30
0
11
-17.493701773024391
21
-34.109872560056502
31
0
0
LINE
5
133
100
AcDbEntity
8
0
100
AcDbLine
10
10.820411901865663
20
80.971243785990112
30
0
11
10.360409896351197
21
80.812836583261358
31
0
0
LINE
5
134
100
AcDbEntity
8
0
100
AcDbLine
10
8.0000001192092824
20
77.503556582420345
30
0
11
8.0000001192092878
21
74.666667769352586
31
0
0
LINE
5
135
100
AcDbEntity
8
0
100
AcDbLine
10
7.6000001192092874
20
73.466667769352597
30
0
11
5.6000000745058065
21
70.800001043081281
31
0
0
LINE
5
136
100
AcDbEntity
8
0
100
AcDbLine
10
4.0000000745058077
20
70.000001043081284
30
0
11
0
21
70.000001043081284
31
0
0
ARC
5
137
100
AcDbEntity
8
0
100
AcDbCircle
10
11.500000119209322
20
77.503556582420316
30
0
40
3.5000000000000386
100
AcDbArc
50
109.00176048367494
51
180
0
ARC
5
138
100
AcDbEntity
8
0
100
AcDbCircle
10
12.936793744316411
20
74.82543807014244
30
0
40
6.5000000000000879
100
AcDbArc
50
68.195617462954971
51
109.00176048367442
0
ARC
5
139
100
AcDbEntity
8
0
100
AcDbCircle
10
6.0000001192093197
20
74.666667769352586
30
0
40
1.9999999999999689
100
AcDbArc
50
-36.869897645844318
51
0
0
ARC
5
140
100
AcDbEntity
8
0
100
AcDbCircle
10
4.0000000745057971
20
72.000001043081298
30
0
40
2.0000000000000195
100
AcDbArc
50
270.00000000000034
51
323.13010235415572
0
LINE
5
141
100
AcDbEntity
8
0
100
AcDbLine
10
-4.0000000745058077
20
70.000001043081284
30
0
11
0
21
70.000001043081284
31
0
0
ARC
5
142
100
AcDbEntity
8
0
100
AcDbCircle
10
-4.0000000745057971
20
72.000001043081298
30
0
40
2.0000000000000187
100
AcDbArc
50
216.86989764584425
51
269.99999999999972
0
LINE
5
143
100
AcDbEntity
8
0
100
AcDbLine
10
-7.6000001192092874
20
73.466667769352597
30
0
11
-5.6000000745058065
21
70.800001043081281
31
0
0
ARC
5
144
100
AcDbEntity
8
0
100
AcDbCircle
10
-6.0000001192093197
20
74.666667769352586
30
0
40
1.9999999999999685
100
AcDbArc
50
180
51
216.86989764584433
0
LINE
5
145
100
AcDbEntity
8
0
100
AcDbLine
10
-8.0000001192092824
20
77.503556582420345
30
0
11
-8.0000001192092878
21
74.666667769352586
31
0
0
ARC
5
146
100
AcDbEntity
8
0
100
AcDbCircle
10
-11.500000119209322
20
77.503556582420316
30
0
40
3.5000000000000386
100
AcDbArc
50
0
51
70.998239516325057
0
LINE
5
147
100
AcDbEntity
8
0
100
AcDbLine
10
-10.820411901865663
20
80.971243785990112
30
0
11
-10.360409896351197
21
80.812836583261358
31
0
0
ARC
5
148
100
AcDbEntity
8
0
100
AcDbCircle
10
-12.936793744316411
20
74.82543807014244
30
0
40
6.5000000000000879
100
AcDbArc
50
70.998239516325597
51
111.80438253704504
0
LINE
5
149
100
AcDbEntity
8
0
100
AcDbLine
10
-15.35114629575256
20
80.860411289418138
30
0
11
-15.607732233101432
21
80.755719525109185
31
0
0
ARC
5
150
100
AcDbEntity
8
0
100
AcDbCircle
10
-8.9061858822750182
20
-80.32913310899383
30
0
40
1.0000000000000207
100
AcDbArc
50
257.45973836561836
51
349.37512001090164
0
ARC
5
151
100
AcDbEntity
8
0
100
AcDbCircle
10
8.9074391449991293
20
-80.32913310899383
30
0
40
1.0000000000000207
100
AcDbArc
50
190.62487998909754
51
282.54026163438175
0
LINE
5
152
100
AcDbEntity
8
0
100
AcDbLine
10
13.000000193715096
20
61.09187240054996
30
0
11
13.000000193715096
21
60.591872400549953
31
0
0
LINE
5
153
100
AcDbEntity
8
0
100
AcDbLine
10
12.000000193715096
20
59.591872400549953
30
0
11
2.5918715511837753
21
59.591872400549953
31
0
0
LINE
5
154
100
AcDbEntity
8
0
100
AcDbLine
10
1.292893233714612
20
58.292894083080796
30
0
11
2.5918715511837753
21
59.591872400549953
31
0
0
LINE
5
155
100
AcDbEntity
8
0
100
AcDbLine
10
0
20
62.091872400549953
30
0
11
12.000000193715096
21
62.091872400549953
31
0
0
ARC
5
156
100
AcDbEntity
8
0
100
AcDbCircle
10
12.000000193715097
20
60.591872400549953
30
0
40
0.99999999999999645
100
AcDbArc
50
-90.000000000000099
51
0
0
ARC
5
157
100
AcDbEntity
8
0
100
AcDbCircle
10
12.000000193715097
20
61.09187240054996
30
0
40
0.99999999999999867
100
AcDbArc
50
0
51
90.000000000000099
0
ARC
5
158
100
AcDbEntity
8
0
100
AcDbCircle
10
-0.58578645252806483
20
59.000000864267356
30
0
40
1.0000000000000051
100
AcDbArc
50
225.00000000000051
51
269.99999999999989
0
LINE
5
159
100
AcDbEntity
8
0
100
AcDbLine
10
-1.292893233714612
20
58.292894083080796
30
0
11
-2.5918715511837753
21
59.591872400549953
31
0
0
LWPOLYLINE
5
160
100
AcDbEntity
8
0
100
AcDbPolyline
90
25
70
1
43
0.0
10
-2.4256297122493331
20
44.158129164071973
42
-0.26675029845520865
10
-3.2894086131477653
20
44.654258138547874
10
-4.8980915197209267
20
47.41200026410187
42
0.26675029845521114
10
-5.7618704206193572
20
47.908129238577779
10
-12.000000193715096
20
47.908129238577779
42
-0.4142135623730957
10
-13.000000193715096
20
48.908129238577772
10
-13.000000193715094
20
49.408129238577779
42
-0.4142135623730957
10
-12.000000193715096
20
50.408129238577779
10
-8.3868704206193563
20
50.408129238577779
42
0.57884312515181124
10
-7.5230915197209258
20
51.912000264101863
10
-8.0028737993380901
20
52.734484172017005
42
0.26675029845518994
10
-8.3051964146525439
20
52.908129313083585
10
-12.000000193715096
20
52.908129313083585
42
-0.4142135623730957
10
-13.000000193715096
20
53.908129313083577
10
-13.000000193715094
20
54.408129313083585
42
-0.4142135623730957
10
-12.000000193715096
20
55.408129313083585
10
-9.8202126733513548
20
55.408129313083585
42
0.2277350823120676
10
-9.0395879116210729
20
55.783129327984753
42
-0.22773508231206313
10
-8.2589631498907945
20
56.158129342885907
10
-4.5000000596046448
20
56.158129342885907
42
-0.23606797749979042
10
-3.7000000596046463
20
55.758129342885908
10
-1.4965463538032544
20
52.820191068484057
42
-0.1596157428285867
10
-1.2966002131966945
20
52.230569694888757
10
-1.2233017632338721
20
45.168507790476667
42
-0.4172567237445281
10
-2.2232479038404311
20
44.158129164071973
0
LINE
5
161
100
AcDbEntity
8
0
100
AcDbLine
10
0
20
62.091872400549953
30
0
11
-12.000000193715096
21
62.091872400549953
31
0
0
LINE
5
162
100
AcDbEntity
8
0
100
AcDbLine
10
-12.000000193715096
20
59.591872400549953
30
0
11
-2.5918715511837753
21
59.591872400549953
31
0
0
LINE
5
163
100
AcDbEntity
8
0
100
AcDbLine
10
-9.7371810889349373
20
64.591872475055766
30
0
11
0
21
64.591872475055766
31
0
0
LINE
5
164
100
AcDbEntity
8
0
100
AcDbLine
10
0
20
67.091872475055766
30
0
11
-9.7371810889349355
21
67.091872475055752
31
0
0
ARC
5
165
100
AcDbEntity
8
0
100
AcDbCircle
10
-12.000000193715097
20
61.09187240054996
30
0
40
0.99999999999999645
100
AcDbArc
50
89.999999999999901
51
180
0
LINE
5
166
100
AcDbEntity
8
0
100
AcDbLine
10
-13.000000193715096
20
61.09187240054996
30
0
11
-13.000000193715096
21
60.591872400549953
31
0
0
ARC
5
167
100
AcDbEntity
8
0
100
AcDbCircle
10
-12.000000193715097
20
60.591872400549953
30
0
40
0.99999999999999867
100
AcDbArc
50
180
51
270.00000000000011
0
LINE
5
168
100
AcDbEntity
8
0
100
AcDbLine
10
-0.58578645252806627
20
58.000000864267349
30
0
11
0
21
58.000000864267349
31
0
0
LINE
5
169
100
AcDbEntity
8
0
100
AcDbLine
10
2.9826256326419776
20
-32.803539027389981
30
0
11
2.9826256326419784
21
-26.00000037252903
31
0
0
ARC
5
170
100
AcDbEntity
8
0
100
AcDbCircle
10
3.9826256326419838
20
-26.000000372529037
30
0
40
1.0000000000000053
100
AcDbArc
50
90.000000000000313
51
180
0
ARC
5
171
100
AcDbEntity
8
0
100
AcDbCircle
10
3.4826256326419758
20
-32.803539027389974
30
0
40
0.49999999999999822
100
AcDbArc
50
180
51
260.69063174679195
0
LINE
5
172
100
AcDbEntity
8
0
100
AcDbLine
10
7.4168406425225841
20
-29.241618678697755
30
0
11
6.0351249594912915
21
-31.9620011832472
31
0
0
ARC
5
173
100
AcDbEntity
8
0
100
AcDbCircle
10
4.7420778742046217
20
-27.883073819953633
30
0
40
3.0000000000000075
100
AcDbArc
50
-26.926574419931633
51
48.929930573854435
0
LINE
5
174
100
AcDbEntity
8
0
100
AcDbLine
10
3.9826256326419784
20
-25.00000037252903
30
0
11
5.0635456208228469
21
-25.00000037252903
31
0
0
ARC
5
175
100
AcDbEntity
8
0
100
AcDbCircle
10
3.8061559858929912
20
-30.829880467627095
30
0
40
2.5000000000000004
100
AcDbArc
50
260.69063174679161
51
333.07342558006826
0
ARC
5
176
100
AcDbEntity
8
0
100
AcDbCircle
10
5.0635456208228247
20
-27.500000372529072
30
0
40
2.500000000000044
100
AcDbArc
50
48.92993057385506
51
89.999999999999503
0
LWPOLYLINE
5
177
100
AcDbEntity
8
0
100
AcDbPolyline
90
8
70
1
43
0.0
10
11.567515546784289
20
-50.59490850743353
42
-0.57634472631352529
10
8.3282521186054765
20
-51.814025131229464
10
3.5812994370744038
20
-47.930154755431303
42
-0.22348236279002237
10
3.0311795497279768
20
-46.777602198195645
10
2.9905890133485915
20
-39.515045852083098
42
-0.57475737749695954
10
4.4789447372458735
20
-38.636821013901745
10
11.505345455259192
20
-41.402138730466412
42
-0.3524543607055094
10
12.735351950215277
20
-43.587890086847636
0
LINE
5
178
100
AcDbEntity
8
0
100
AcDbLine
10
9.9999999999999982
20
-40
30
0
11
9.903506951142667
21
-40
31
0
0
LWPOLYLINE
5
179
100
AcDbEntity
8
0
100
AcDbPolyline
90
8
70
1
43
0.0
10
3.0351236138227522
20
-56.405291835721556
42
-0.6241111318741851
10
4.6490642273376714
20
-55.615939618345223
10
8.2278813611402875
20
-58.399464055747274
42
-0.23144282478505457
10
9.0000001341104507
20
-59.978168490499925
10
9.000000134110449
20
-60.700254745695077
42
-0.29639153736374235
10
7.8122770662173471
20
-62.527877842935588
10
4.4412620798761955
20
-64.026106725753877
42
-0.54274379487779589
10
3.03512361382275
20
-63.112295177133618
0
LINE
5
180
100
AcDbEntity
8
0
100
AcDbLine
10
7.9245837671358483
20
-80.513511269862391
30
0
11
5.3412835453638499
21
-68.57695627599567
31
0
0
LINE
5
181
100
AcDbEntity
8
0
100
AcDbLine
10
3.3865372286095186
20
-67.0000009983778
30
0
11
0
21
-67.0000009983778
31
0
0
LINE
5
182
100
AcDbEntity
8
0
100
AcDbLine
10
-3.3863909714382689
20
-67.0000009983778
30
0
11
0
21
-67.0000009983778
31
0
0
LINE
5
183
100
AcDbEntity
8
0
100
AcDbLine
10
-5.3411747596399177
20
-68.577129455963316
30
0
11
-7.9233305044117408
21
-80.513511269862406
31
0
0
ARC
5
184
100
AcDbEntity
8
0
100
AcDbCircle
10
-3.3863909714382734
20
-69.0000009983778
30
0
40
1.9999999999999929
100
AcDbArc
50
89.999999999999872
51
167.79349461881145
0
ARC
5
185
100
AcDbEntity
8
0
100
AcDbCircle
10
3.3865372286095132
20
-69.0000009983778
30
0
40
2.0000000000000058
100
AcDbArc
50
12.211581429188854
51
89.999999999999844
0
LWPOLYLINE
5
186
100
AcDbEntity
8
0
100
AcDbPolyline
90
4
70
1
43
0.0
10
12.800000000000001
20
17.371773116720046
10
15
20
17.371773116720046
10
15
20
-4.6282268832799556
10
12.800000000000001
20
-4.6282268832799556
0
LWPOLYLINE
5
187
100
AcDbEntity
8
0
100
AcDbPolyline
90
4
70
1
43
0.0
10
-15
20
17.371773116720046
10
-15
20
-4.6282268832799556
10
-12.800000000000001
20
-4.6282268832799556
10
-12.800000000000001
20
17.371773116720046
0
LINE
5
188
100
AcDbEntity
8
0
100
AcDbLine
10
11
20
23.75
30
0
11
-11
21
23.75
31
0
0
LINE
5
189
100
AcDbEntity
8
0
100
AcDbLine
10
-11
20
23.75
30
0
11
-11
21
26.25
31
0
0
LINE
5
190
100
AcDbEntity
8
0
100
AcDbLine
10
-11
20
26.25
30
0
11
11
21
26.25
31
0
0
LINE
5
191
100
AcDbEntity
8
0
100
AcDbLine
10
11
20
26.25
30
0
11
11
21
23.75
31
0
0
LINE
5
192
100
AcDbEntity
8
0
100
AcDbLine
10
11
20
23.75
30
0
11
-11
21
26.25
31
0
0
LINE
5
193
100
AcDbEntity
8
0
100
AcDbLine
10
-11
20
23.75
30
0
11
11
21
26.25
31
0
0
LINE
5
194
100
AcDbEntity
8
0
100
AcDbLine
10
0
20
-16.080669753878777
30
0
11
0
21
-16.25
31
0
0
LWPOLYLINE
5
195
100
AcDbEntity
8
0
100
AcDbPolyline
90
4
70
1
43
0.0
10
11
20
-16.080669753878777
10
-11
20
-16.080669753878777
10
-11
20
-18.580669753878777
10
11
20
-18.580669753878777
0
LWPOLYLINE
5
196
100
AcDbEntity
8
0
100
AcDbPolyline
90
12
70
1
43
0.0
10
-7.1024895950776914
20
6.3851023761816528
10
-7.1024895950776941
20
13.26186531026125
42
-0.37381345748374384
10
-5.3813308306222085
20
15.242331812214768
10
-0.13942061777225812
20
15.980370410152538
42
-0.070052400995633715
10
0.13942061777225678
20
15.980370410152538
10
5.3813308306222085
20
15.242331812214772
42
-0.37381345748374373
10
7.1024895950776923
20
13.261865310261252
10
7.1024895950776941
20
6.3851023761816528
42
-0.31954932194123753
10
5.7574207823487669
20
4.4953761685156568
10
0.65493118727107336
20
2.7269826546901936
42
-0.16837462389520211
10
-0.65493118727107502
20
2.7269826546901941
10
-5.7574207823487669
20
4.4953761685156577
42
-0.31954932194123759
0
LWPOLYLINE
5
197
100
AcDbEntity
8
0
100
AcDbPolyline
90
12
70
1
43
0.0
10
-5.1357103388573382
20
-9.3545255150129609
10
-6.7091590869298674
20
-1.8707845644928871
42
-0.60545461198061523
10
-5.3414536754474318
20
-0.74383887042603014
10
-0.77820188924009437
20
-2.6712975987151655
42
0.20253067475219541
10
0.77820188924009437
20
-2.6712975987151655
10
5.3414536754474318
20
-0.7438388704260297
42
-0.60545461198061523
10
6.7091590869298674
20
-1.8707845644928867
10
5.1357103388573382
20
-9.3545255150129609
42
-0.30009345113224667
10
4.3532220380426914
20
-10.129355613594495
10
0.39223233209548292
20
-10.921553684635299
42
-0.099019529508161147
10
-0.39223233209548292
20
-10.921553684635299
10
-4.3532220380426914
20
-10.129355613594495
42
-0.30009345113224667
0
LWPOLYLINE
5
198
100
AcDbEntity
8
0
100
AcDbPolyline
90
4
70
1
43
0.0
10
14.250000000000004
20
71.000001057982445
42
-0.99999999999999989
10
15.250000000000004
20
71.000001057982445
10
15.250000000000004
20
66.000001057982445
42
-0.99999999999999989
10
14.250000000000004
20
66.000001057982445
0
LWPOLYLINE
5
199
100
AcDbEntity
8
0
100
AcDbPolyline
90
4
70
1
43
0.0
10
14.25
20
45.000000596046448
10
14.25
20
40.000000596046448
42
0.99999999999999989
10
15.250000000000002
20
40.000000596046448
10
15.250000000000002
20
45.000000596046448
42
0.99999999999999989
0
LWPOLYLINE
5
200
100
AcDbEntity
8
0
100
AcDbPolyline
90
4
70
1
43
0.0
10
-14.25
20
45.000000596046448
10
-14.25
20
40.000000596046448
42
-0.99999999999999989
10
-15.250000000000002
20
40.000000596046448
10
-15.250000000000002
20
45.000000596046448
42
-0.99999999999999989
0
LWPOLYLINE
5
201
100
AcDbEntity
8
0
100
AcDbPolyline
90
4
70
1
43
0.0
10
-15.250000000000004
20
71.000001057982445
42
-0.99999999999999989
10
-14.250000000000004
20
71.000001057982445
10
-14.250000000000004
20
66.000000983476639
42
-0.99999999999999989
10
-15.250000000000004
20
66.000000983476639
0
LINE
5
202
100
AcDbEntity
8
0
100
AcDbLine
10
-10.737181088934937
20
66.091872475055766
30
0
11
-10.737181088934937
21
65.591872475055752
31
0
0
ARC
5
203
100
AcDbEntity
8
0
100
AcDbCircle
10
-9.7371810889349462
20
66.091872475055766
30
0
40
0.99999999999998757
100
AcDbArc
50
89.999999999999389
51
180
0
ARC
5
204
100
AcDbEntity
8
0
100
AcDbCircle
10
-9.7371810889349444
20
65.591872475055752
30
0
40
0.99999999999999312
100
AcDbArc
50
180
51
270.0000000000004
0
LINE
5
205
100
AcDbEntity
8
0
100
AcDbLine
10
9.7371810889349373
20
64.591872475055766
30
0
11
0
21
64.591872475055766
31
0
0
ARC
5
206
100
AcDbEntity
8
0
100
AcDbCircle
10
9.7371810889349444
20
65.591872475055752
30
0
40
0.99999999999999645
100
AcDbArc
50
-90.000000000000398
51
0
0
LINE
5
207
100
AcDbEntity
8
0
100
AcDbLine
10
0
20
67.091872475055766
30
0
11
9.7371810889349355
21
67.091872475055752
31
0
0
ARC
5
208
100
AcDbEntity
8
0
100
AcDbCircle
10
9.7371810889349462
20
66.091872475055766
30
0
40
0.99999999999999201
100
AcDbArc
50
0
51
90.000000000000611
0
LINE
5
209
100
AcDbEntity
8
0
100
AcDbLine
10
10.737181088934937
20
66.091872475055766
30
0
11
10.737181088934937
21
65.591872475055752
31
0
0
ENDSEC
0
SECTION
2
OBJECTS
0
DICTIONARY
5
C
100
AcDbDictionary
3
ACAD_GROUP
350
D
3
ACAD_MLINESTYLE
350
17
0
DICTIONARY
5
D
100
AcDbDictionary
0
DICTIONARY
5
1A
330
C
100
AcDbDictionary
0
DICTIONARY
5
17
100
AcDbDictionary
0
ENDSEC
0
EOF
